<svg xmlns="http://www.w3.org/2000/svg" viewBox="0 0 16 15.99"><defs><style>.cls-1{fill:#af8874;}.cls-2{fill:#4b403e;}.cls-3{fill:#fefefe;}</style></defs><g id="Camada_2" data-name="Camada 2"><g id="Layer_1" data-name="Layer 1"><polygon class="cls-1" points="3.41 14.76 3.41 14.76 3.41 14.76 3.41 14.76"/><polygon class="cls-1" points="1.57 11.7 1.57 11.7 1.56 11.7 1.57 11.7"/><polygon class="cls-1" points="1.92 10.72 1.92 10.72 1.91 10.72 1.92 10.72"/><path class="cls-1" d="M15.36,14.18h.07l.22.08s.12,0,.14,0,0-.12-.1-.14-.1,0-.11,0,.21,0,.3.08.16.15,0,.25-.15.13,0,.21,0,.13,0,.19-.09,0-.14,0-.08-.16,0-.25c-.14-.09-.32-.09-.39-.26C15.35,14.23,15.33,14.2,15.36,14.18Z"/><path class="cls-1" d="M3.13,10.47a1.32,1.32,0,0,1-.47-.13s-.07-.05-.06-.11a.24.24,0,0,1,0-.1.25.25,0,0,1,.28-.07c.13.06.27.11.29.27S3.2,10.49,3.13,10.47Z"/><path class="cls-1" d="M0,11.27s0-.08.05-.07.05.05.06.08.08.22.21.15a.74.74,0,0,1,.25,0,.08.08,0,0,1,.11.08.1.1,0,0,1-.08.13,1,1,0,0,1-.3,0C.06,11.69,0,11.53,0,11.27Z"/><path class="cls-1" d="M5.1,15.61a.1.1,0,0,1,.11.12s-.06.06-.11.07S5,15.73,5,15.69s0-.09-.09-.08-.09,0-.07.08.07.09,0,.13-.09,0-.13-.05a.36.36,0,0,1-.15-.15c.09-.06.21-.07.28-.13S5,15.64,5.1,15.61Z"/><path class="cls-1" d="M1.38,14c.11,0,.13-.08.06-.17a.09.09,0,0,1,0-.1c.13,0,.23.12.22.27s-.1.14-.19.17-.17,0-.19-.07S1.33,14,1.38,14Z"/><path class="cls-1" d="M4.78,2.93c-.07-.1-.07-.24-.2-.31s0-.08.06-.09.25.16.27.21,0,.13,0,.19S4.84,3,4.78,2.93Z"/><polygon class="cls-1" points="4.91 2.93 4.91 2.93 4.91 2.93 4.91 2.93"/><path class="cls-1" d="M3.76,10.63a.12.12,0,0,1,.18,0c0,.05,0,.09,0,.14s-.11,0-.17,0a2.11,2.11,0,0,1-.45-.18c.08-.13.16-.08.24,0S3.67,10.71,3.76,10.63Z"/><path class="cls-1" d="M2.69,15.2a.12.12,0,0,0,.08,0c.22-.06.36,0,.54.2-.13,0-.23-.06-.29,0s-.25-.07-.36-.12,0,0,0-.07S2.68,15.18,2.69,15.2Z"/><path class="cls-1" d="M1.75,10.77a.69.69,0,0,1-.53-.2.18.18,0,0,1,.1-.28c.17-.07.36-.08.45.16l.1.2s0,0,0,.07H1.84A.15.15,0,0,1,1.75,10.77Z"/><path class="cls-1" d="M4.24,15.81l.09,0c.08,0,.12,0,.08-.07a.31.31,0,0,1,0-.08c0-.06,0-.12.05-.13a.08.08,0,0,1,.08.11.19.19,0,0,0,0,.15c.05.15,0,.16-.13.15a.39.39,0,0,1-.21,0s-.06,0,0-.09S4.19,15.79,4.24,15.81Z"/><path class="cls-1" d="M1.54,11.45c0,.06,0,.16-.13.14s-.19,0-.19-.15.09-.08.15-.09S1.54,11.35,1.54,11.45Z"/><path class="cls-1" d="M1.67,14.47a.17.17,0,0,1,.18.12c0,.09-.1.05-.16.07s-.21,0-.22-.08S1.59,14.48,1.67,14.47Z"/><path class="cls-1" d="M5.36,3.77c-.15-.13-.15-.35-.28-.49s0,0,0-.08,0,0,0,0,0,0,0,.07,0,.08,0,.12S5.32,3.64,5.36,3.77Z"/><path class="cls-1" d="M4.39,1.08A.4.4,0,0,1,4.68.75l0,0C4.65.91,4.5.93,4.39,1.08Z"/><path class="cls-1" d="M4.82,2.29s-.13,0-.1-.14,0-.1,0-.09S5,2.09,5,2.2,4.82,2.19,4.82,2.29Z"/><path class="cls-1" d="M1.14,14.08A.41.41,0,0,1,1,13.75.35.35,0,0,1,1.14,14.08Z"/><path class="cls-1" d="M1.16,13.53c-.06,0,0,.14-.13.14s-.09-.07-.09-.12S1.08,13.49,1.16,13.53Z"/><polygon class="cls-1" points="0.94 13.54 0.94 13.54 0.94 13.54 0.94 13.54"/><path class="cls-1" d="M7.76,15.84a.33.33,0,0,1-.37,0A.37.37,0,0,1,7.76,15.84Z"/><path class="cls-1" d="M.41,8.52c-.1,0-.11-.08-.14-.14s.15,0,.17.09A0,0,0,0,1,.41,8.52Z"/><path class="cls-1" d="M13.51,16c-.11,0-.23,0-.33,0C13.29,16,13.41,15.89,13.51,16Z"/><path class="cls-1" d="M3.93,15.63c.07,0,0,.12,0,.2s-.13-.08-.08-.16S3.9,15.6,3.93,15.63Z"/><path class="cls-1" d="M1.81,11.29a.12.12,0,0,1,.09.1.05.05,0,0,1,0,.07c-.06,0-.08,0-.08-.09S1.77,11.28,1.81,11.29Z"/><path class="cls-1" d="M5,15.89c.08,0,.14,0,.23.08-.11,0-.19,0-.25,0S5,15.89,5,15.89Z"/><path class="cls-1" d="M5.81,2.91a.21.21,0,0,1,.11.19C5.74,3.1,5.86,3,5.81,2.91Z"/><polygon class="cls-1" points="5.92 3.1 5.92 3.1 5.92 3.1 5.92 3.1 5.92 3.1 5.92 3.1 5.92 3.1 5.92 3.1 5.92 3.1"/><path class="cls-1" d="M5,2.41a.06.06,0,0,1-.09,0c-.06-.08,0-.09.07-.15S5.05,2.35,5,2.41Z"/><path class="cls-1" d="M12,15.77a.25.25,0,0,1-.22,0C11.85,15.67,11.92,15.72,12,15.77Z"/><path class="cls-1" d="M5.85,2.79s0,0,0,0a0,0,0,0,1,0,0,.08.08,0,0,1,0-.07S5.85,2.77,5.85,2.79Z"/><polygon class="cls-1" points="3.34 14.69 3.34 14.69 3.34 14.69 3.34 14.69"/><path class="cls-1" d="M3.24,14.66l0,0a.1.1,0,0,1,.08.07S3.26,14.7,3.24,14.66Z"/><polygon class="cls-1" points="1.92 10.72 1.91 10.72 1.91 10.72 1.92 10.72"/><path class="cls-1" d="M4.91,2.93Z"/><path class="cls-1" d="M5,3l0,0H5Z"/><path class="cls-1" d="M5.83,4.31l0,0,0,0,0,0A.05.05,0,0,1,5.83,4.31Z"/><path class="cls-1" d="M.94,13.54h0Z"/><polygon class="cls-1" points="3.37 14.72 3.38 14.73 3.38 14.73 3.37 14.72"/><path class="cls-1" d="M3.34,14.7l0,0S3.34,14.71,3.34,14.7Z"/><polygon class="cls-1" points="3.34 14.69 3.34 14.7 3.34 14.69 3.34 14.69"/><path class="cls-1" d="M3.38,14.73a0,0,0,0,1,0,0A0,0,0,0,1,3.38,14.73Z"/><polygon class="cls-1" points="3.41 14.76 3.41 14.76 3.41 14.76 3.41 14.76"/><polygon class="cls-1" points="3.38 14.73 3.38 14.73 3.38 14.73 3.38 14.73"/><path class="cls-1" d="M1.57,11.7h0Z"/><path class="cls-1" d="M.43,13.49s.13,0,.1-.07a.37.37,0,0,1,.11,0,1.89,1.89,0,0,0,.67,0c.1,0,.2,0,.25.11s.09.15.15,0,0,0,.07,0a.87.87,0,0,1,.22.21c0,.05.07.09,0,.15A.06.06,0,0,0,2,14a.11.11,0,0,0,.13,0A1,1,0,0,1,2.51,14l.1,0a.28.28,0,0,1,.23.2c-.07.08-.14,0-.2,0s-.16,0-.23,0-.11-.18-.2-.12,0,.17,0,.26-.16,0-.19.07a.25.25,0,0,0,.08.23.24.24,0,0,0,.26,0c.2-.07.38-.22.61-.17.06,0,.14.05.19,0s0-.14,0-.2S3.06,14.07,3,14H3l-.06-.08c.13-.16,0-.28-.09-.45.16,0,.25.1.23.24s0,.12,0,.18,0,.1.06.15.28,0,.35.18-.07.26,0,.4,0,.13-.13.14,0,.08,0,.1,0,.11,0,.16-.07,0-.11,0A1.8,1.8,0,0,0,3,15s-.09,0-.09,0c0-.2-.24-.08-.34-.16s-.07,0-.08,0,0,0,.06.06.2,0,.24.16.08,0,.13,0a.79.79,0,0,1,.46.17,1.35,1.35,0,0,0,.49.16,1.07,1.07,0,0,0,.4,0c.23,0,.29-.13.17-.34.11,0,.22.07.33,0v0l.1,0c-.06.09,0,.15,0,.19a.1.1,0,0,0,.15-.06s0,0,0,0h0l.13,0c-.08.1-.14.21,0,.32a.53.53,0,0,0,.48.06.17.17,0,0,0,0-.07h0c.09,0,.15,0,.18.09s.15.15.26.15a1.24,1.24,0,0,0,.27,0s.1,0,.13,0,.36.1.55.08.09,0,.08-.06a.4.4,0,0,1,0-.32.24.24,0,0,1,.14.1c0,.08.09.13.18.11a.07.07,0,0,1,.07,0,1.13,1.13,0,0,0,.88.12c.05,0,.11,0,.13,0s.16.1.25.1c.36,0,.72,0,1.08,0a4,4,0,0,0,.6,0s.07,0,.09,0a.08.08,0,0,0-.06-.1,1.08,1.08,0,0,0-.56-.11c-.08,0-.13.13-.24.07s-.06,0-.07,0,0-.07.05-.09.11-.08.17-.06.38-.05.55-.11.15-.08.22,0,.11.06.17.07.09,0,.12,0,.29.1.44.11a.12.12,0,0,0,.11-.11.72.72,0,0,1,.1-.29c.13-.15.3-.09.42.11a.91.91,0,0,0,.09.17c.13.15.21.16.36,0a.51.51,0,0,1,.67.05c.06.08.14,0,.22,0s.05-.13.11-.18a.17.17,0,0,0-.17,0c-.15,0-.3,0-.45,0s-.06,0-.06,0c0-.22-.25-.24-.38-.35a.22.22,0,0,1-.21,0,.22.22,0,0,0,.21,0c.14-.16.14-.16-.21-.28a.36.36,0,0,1,.48,0c0,.13,0,.27.14.3H13c.11,0,.21.07.3,0s.2,0,.3-.06a.35.35,0,0,0,.18.05.41.41,0,0,1,.33.23.27.27,0,0,0,.27.18l.24,0c.08,0,.16,0,.18-.09s-.07-.13-.14-.15h-.08c-.05,0,0,.06,0,.09s0,.06,0,.09a.07.07,0,0,1-.09,0c-.11-.08-.27-.1-.25-.29a.28.28,0,0,0-.28-.27,1.54,1.54,0,0,1-.43,0s-.1,0-.12-.08l.17,0c.1,0,.19,0,.25-.07a.16.16,0,0,0,.21-.06c.06.06.06.19.24.11s.27.1.34.23.21.2.33.05a.26.26,0,0,1,.16-.09.16.16,0,0,0,.1-.27.44.44,0,0,0-.36-.21,1.17,1.17,0,0,1-.37-.08c-.11-.07-.26,0-.38-.1,0-.14.18-.08.24-.08a.23.23,0,0,0,.25-.15.32.32,0,0,0-.19-.32.3.3,0,0,0-.26,0,3,3,0,0,1-.42.14.32.32,0,0,1-.32-.09.28.28,0,0,0-.27-.07.28.28,0,0,1-.31-.19l0,0,0,0c.05,0,.1,0,.1-.06h.14c.08,0,.07-.08.08-.13s0-.12-.08-.1c-.36.07-.44-.21-.56-.43a.9.9,0,0,0-.15-.19c-.08-.07-.16-.1-.23,0s-.14.08-.19,0-.08-.2-.22-.19-.09-.07-.13-.12-.12-.3-.31-.36-.12,0-.14.07,0,.15-.1.09-.18-.11-.13-.22c.12-.29.12-.35-.11-.57a.37.37,0,0,1-.14-.3c0-.39-.06-.78,0-1.19a.55.55,0,0,0-.24-.52h0l0-.06s0,0,0,0h0a.08.08,0,0,0-.07-.08h0a.94.94,0,0,1,.13-.43.61.61,0,0,0,0-.27,5.28,5.28,0,0,1-.07-1.26,2.42,2.42,0,0,1,0-.47c0-.14.1-.21.24-.15A.24.24,0,0,0,11,6.33a2.5,2.5,0,0,0,.34-1.06c0-.07,0-.08.09-.09s.17-.14.07-.2a.53.53,0,0,1-.21-.39c0-.15-.09-.25-.25-.26a.28.28,0,0,1-.23-.13A.44.44,0,0,0,10.47,4c-.29,0-.58-.08-.87-.13,0,0-.09,0-.12,0-.18.11-.38,0-.55.07s-.24-.1-.29-.23S8.5,3.21,8.4,3c-.18-.43-.37-.86-.56-1.29L7.44.8A.17.17,0,0,0,7.37.66l0-.07C7.25.45,7.29.26,7.19.12H7.14l0,0h0A.22.22,0,0,1,7,.14C6.85.07,6.83.07,6.8.21s-.11.07-.12,0S6.58.14,6.51.15s0,.12,0,.16,0-.09,0-.16S6.53,0,6.37,0s-.24,0-.31.12C5.93,0,5.84.25,5.7.15s-.15.06-.22.1c-.23.12-1.71.93-1.34,1.37A31.37,31.37,0,0,1,5.74,5a0,0,0,0,0,0-.05h0c0-.12-.1,0-.19,0a.67.67,0,0,0-.35.25.15.15,0,0,0-.12.1l.05.08a1.08,1.08,0,0,1-.24.18,1.08,1.08,0,0,0,.24-.18l-.05-.08a5.08,5.08,0,0,0-.51.41v0h0v0l-.1.06-.08.09c-.06,0-.11,0-.12.07h0c-.16.15-.34.29-.49.45a.59.59,0,0,0-.2.47c0,.2,0,.4,0,.61a2.1,2.1,0,0,0,.09.5,1,1,0,0,0,.8.67,2.48,2.48,0,0,1,.35.13c.08,0,.1.15.21.13a.9.9,0,0,1,.22.36,2.29,2.29,0,0,1,.25.75.3.3,0,0,0,.12.26c.06,0,0,.08,0,.13l-.24.4a.22.22,0,0,0-.25-.13.52.52,0,0,1-.37,0,.78.78,0,0,0-.5,0c-.08,0-.17,0-.07.14a.34.34,0,0,1,.08.17s0,.06.07,0,.21,0,.21.14,0,.07,0,.16c0-.18-.12-.2-.22-.2s-.2,0-.26.08,0,.05,0,0-.29,0-.43-.09-.25-.08-.3-.22-.1-.07-.15,0a.18.18,0,0,0,0,.24s.06.05.06.08.11.16.23.15a.49.49,0,0,1,.24,0,.49.49,0,0,0-.24,0,.18.18,0,0,0,0,.12c0,.22,0,.22-.17.15a.39.39,0,0,0-.27-.18,1.61,1.61,0,0,1-.43-.17l0-.1a.88.88,0,0,1,.19-.24c.1-.12.06-.21-.07-.28s-.12-.08,0-.16a.47.47,0,0,0-.3-.1.46.46,0,0,1-.3-.15.08.08,0,0,0-.14,0s0,.08,0,.12L2,10.5c.08.14,0,.21-.11.22a1.08,1.08,0,0,1,0,.19c-.07.15,0,.24.14.29l.2.07a.13.13,0,0,1-.06.15l-.07.05c0,.23-.15.16-.27.16s-.17.08-.26.07c0,.2,0,.18-.21.17a1.72,1.72,0,0,1-.39-.1c-.06,0-.13-.07-.16,0s.08.12.1.12a.42.42,0,0,1,.47.22c.14,0,.26.09.24.15s.15.17.16.28l.07,0h.06c0,.07.15,0,.13.14H2a.47.47,0,0,0-.29-.14,1,1,0,0,1-.24-.1c-.08,0-.16-.15-.27,0s-.18,0-.18-.1a.08.08,0,0,0,0,0c0-.09-.21-.17-.29-.11a.2.2,0,0,0,0,.28c.07.09.15.18.29.06s.17,0,.24,0,.31,0,.44.07.09,0,.07.08-.06,0-.1,0-.11,0-.16,0a.2.2,0,0,1-.12.06c-.05,0-.14,0-.13.06a.14.14,0,0,0,.14.16c.08,0,.14,0,.16.13-.19,0-.35-.13-.55-.09.08.12.24.09.31.2-.26-.13-.5,0-.75,0,0,0-.11,0-.1.08S.38,13.48.43,13.49Zm11.93-.05a.25.25,0,0,0-.08.15.25.25,0,0,1,.08-.15Zm0-.27a.08.08,0,0,1,.05.07A.08.08,0,0,0,12.35,13.17Zm.27.29a.35.35,0,0,1-.23-.16h0A.35.35,0,0,0,12.62,13.46Zm-6.45,1.9Zm5,0h0a.25.25,0,0,1,.17.06A.25.25,0,0,0,11.17,15.32Zm-.27-1.57h0a.2.2,0,0,0,0-.1A.2.2,0,0,1,10.9,13.75Zm0,0,0,0Zm-.77,1.12h0s0,0-.05,0S10.13,14.87,10.15,14.88Zm-1.94.62h0s0-.09,0-.13S8.22,15.46,8.21,15.5ZM7.15,15a.56.56,0,0,1-.24-.14.56.56,0,0,0,.24.14s0,0,0,0S7.17,15,7.15,15Zm-.92.35h0s0-.09,0-.12S6.25,15.3,6.23,15.34ZM4.32,13.75Zm1,1.05a.2.2,0,0,0,0-.07.2.2,0,0,1,0,.07ZM4.1,13.4a.07.07,0,0,1-.07,0H4A.07.07,0,0,0,4.1,13.4Zm.77.08-.06-.05Zm-.56.27A.41.41,0,0,0,4,13.58a.41.41,0,0,1,.27.17ZM4,13.37H4Zm1.41.23H5.29A.42.42,0,0,1,5,13.54l-.06,0,.06,0a.42.42,0,0,0,.33.07Zm-.83.71H4.41a.8.8,0,0,0-.13-.13.8.8,0,0,1,.13.13Zm-.64.11,0,0,0,0a.44.44,0,0,1,0-.1A.44.44,0,0,0,3.9,14.42ZM13,14.28v0Zm0,.51.09,0Zm-2.5.14h-.06l-.05,0,.05,0h.06a.33.33,0,0,1,.26-.1A.33.33,0,0,0,10.48,14.93Zm-4.74.58s0,0,.06,0,0,0,0,0,0,0,0,0,0,0-.06,0a0,0,0,0,0,0,.05A0,0,0,0,1,5.74,15.51Zm-3-2.25a.17.17,0,0,0,.06-.06h0A.17.17,0,0,1,2.76,13.26Z"/><path class="cls-2" d="M5.08,8.77c.07,0,.11-.12.06-.19s-.12,0-.19,0a.19.19,0,0,0-.15.21,2.48,2.48,0,0,0-.35-.13A1,1,0,0,1,3.65,8a2.1,2.1,0,0,1-.09-.5c0-.21,0-.41,0-.61a.59.59,0,0,1,.2-.47c.15-.16.33-.3.49-.45a.24.24,0,0,1,0,.14h0l-.15,0s0,.06,0,.07.09.17.17.23.06,0,.06.09-.08,0-.12,0a1.8,1.8,0,0,1-.32-.06c0,.12.11.14.17.19l.3.19c.08,0,.17,0,.17-.09s0-.2.18-.12c0,0,0,0,0,.08s-.06.1,0,.14,0,0,.07,0,.07-.1,0-.16l0,0a.68.68,0,0,1,.24.36l0,0s0,0-.07,0-.11-.13-.2,0-.16,0-.24.07c.07.11.2,0,.31.09s.18.31.24.47.09.14.16.06.11,0,.12,0,.06.1.13.09.07,0,0-.08-.13-.27-.21-.4a5.85,5.85,0,0,0-.41-.92s0-.05,0-.07a.09.09,0,0,1,0-.11c.18,0,.17.17.26.26s.16.08.2-.06a.07.07,0,0,1,.1,0h0a.62.62,0,0,1,0-.33s0,0,0,0-.11-.16-.06-.3a.15.15,0,0,1,.1.12c0,.05,0,.09.08.06s0-.07,0-.1-.06-.17-.16-.2-.07-.2-.21-.21l-.05-.08a.15.15,0,0,1,.12-.1l.1,0,.19.19c0,.07.08.08.11.12s.11,0,0,.12,0,0,0,.06.05,0,.06,0,.17-.09.25-.07,0,.09,0,.16A.82.82,0,0,0,6,6.3c0,.08.1,0,.15,0a.16.16,0,0,0,.15.08c0,.13,0,.16.11.32s0,.12.1.18,0,.1.12,0,.09,0,.1,0A.34.34,0,0,0,7,7.22a.12.12,0,0,1,.06.06.19.19,0,0,0,.24.1h0s0,0,.07,0a1.72,1.72,0,0,1,.42.23s0,0,.07,0,0-.1,0-.11,0-.11,0-.16a.42.42,0,0,0,0-.48s-.12-.07-.13,0-.09,0-.14.06,0-.06-.08-.06v0s0,0,.08,0-.16,0-.21,0a.11.11,0,0,0-.09-.06s0-.06,0-.06l0,0s0,0,.05.06,0,.12-.06.11S7.06,7,7,7.05c-.17-.1-.32-.2-.23-.42h0s.06.13.15.09.07,0,0-.06-.11,0-.15-.1-.26-.06-.2-.25c0,0-.09-.09-.13-.14s-.08-.07,0-.12.07,0,.1,0,0,.08.1,0,0-.06,0-.08,0,0,0-.08.07,0,0-.1-.16-.11-.22,0c0-.07-.1-.1-.11-.18s0-.08.09-.09,0,.06,0,.06.14,0,.12-.08h0s.1.07.16,0-.07-.13-.17-.11,0,0,0,0,.12,0,.15-.08-.16-.13-.19-.13c-.19.07-.32-.1-.48-.13s0-.08,0-.12,0-.18-.09-.19l0-.24c.07,0,0-.13.06-.1s.22,0,.25.11,0,.07,0,0,0,0,0,0,.11-.23,0-.31,0-.09,0-.14.06,0,.09,0,.08,0,.07-.09a.19.19,0,0,0,0-.08c-.1-.27-.1-.26.16-.35.11,0,.24-.06.29-.2h0a.1.1,0,0,1,.12.07c0,.2.23.32.26.52a.23.23,0,0,1,0,.3c-.11,0-.15,0-.1-.15s0,0,0,0,0,0-.06,0c-.18.08-.18.23-.17.39a.24.24,0,0,1,0,.2c-.07.09.08.26.23.27s.07.06.06.12,0,.06,0,.08,0,.17-.1.15-.09,0-.1.1.06,0,.1,0a.28.28,0,0,0,.2,0,.2.2,0,0,1,.21,0,.68.68,0,0,0,.48-.09c.06,0,0-.08,0-.12a2.89,2.89,0,0,1-.26-.63l0-.07c.06-.08.12-.11.17,0s0,.26.08.38,0,0,0,.05,0,.13.08.15H8c0,.11,0,.19.15.1s.13,0,.09-.09-.06-.29-.17-.4,0-.23-.2-.21v-.1c.12,0,0-.07.06-.11l.07,0a3.6,3.6,0,0,1,.22.54c0,.07.09.13.06.22s0,.09.09,0A.38.38,0,0,0,8.54,5s0-.08,0-.11a.34.34,0,0,1-.11-.43,1.91,1.91,0,0,0,0-.48s0-.06,0-.06-.15-.08-.17-.17a2.27,2.27,0,0,1-.16-.62c0-.05-.09,0-.14,0s-.12.07-.14,0S7.84,3,7.9,3,8.09,3,8,2.83s0-.07-.11,0-.21,0-.29.15a.15.15,0,0,1-.17,0c-.07-.06,0-.09,0-.14a.26.26,0,0,0,.25-.14c.12,0,.28.07.31-.15S8,2.42,8,2.45a.7.7,0,0,0-.27.14l-.28.1c-.11,0-.12.06-.1.12s.06.18-.1.15S7.12,3,7.12,3c.08.24-.18.08-.19.24-.06-.13,0-.17.05-.2s.11,0,.07-.1-.08-.1-.16-.05S6.67,3,6.57,3a.05.05,0,0,1-.08,0s0-.07,0-.1.1,0,.08-.06c-.06-.2,0-.12.13-.09s.07-.14.12-.2a.09.09,0,0,0,0-.07l.07,0c0,.06,0,.1.09.09s.14.06.13.16.13-.08.13-.16.08-.09.14-.11a.48.48,0,0,0,.5-.42c0-.14,0-.2-.17-.16L7.42,2a.14.14,0,0,0-.08.21.47.47,0,0,1,0,.16c-.09,0-.11-.07-.14-.13S7.11,2.13,7,2.19s-.21,0-.25.11-.08,0-.09,0-.18,0-.24.1-.1.09-.1.16a.23.23,0,0,0-.11.19s0-.07-.07-.07l-.09-.19c-.07,0-.17.13-.22,0s-.17-.18-.08-.32a.07.07,0,0,0,0-.09c-.08-.07-.08-.17-.14-.24a.16.16,0,0,0,.15-.08c.08.11.12.28.31.18.11.07.18-.06.27-.05a3.17,3.17,0,0,0,.51-.2c.1,0,0-.17.07-.21l.25,0c.2,0,.13-.21.11-.29s-.15,0-.23,0-.19.14-.26.23,0-.13-.09-.07a.61.61,0,0,1-.14.07c-.27.1-.27.1-.19.35-.08,0-.2.08-.16-.1s-.06-.07-.1-.07-.17,0-.09-.15.24,0,.3-.17h0a.42.42,0,0,0,.3-.08s.1,0,.11-.05-.05,0-.08,0,0-.11,0-.18,0-.1.06-.08.07.08.11.14c0-.09,0-.17,0-.25.07.1.27.12.15.33a.61.61,0,0,1,.21-.06c.07,0,.2,0,.14-.17s0-.08.08-.08l.4.88c.19.43.38.86.56,1.29.1.24.16.5.24.74s0,.29.29.23.37,0,.55-.07c0,0,.08,0,.12,0,.29.05.58.1.87.13a.44.44,0,0,1,.37.19.28.28,0,0,0,.23.13c.16,0,.23.11.25.26a.53.53,0,0,0,.21.39c.1.06.07.17-.07.2s-.09,0-.09.09A2.5,2.5,0,0,1,11,6.33a.24.24,0,0,1-.35.14c-.14-.06-.21,0-.24.15a2.42,2.42,0,0,0,0,.47,5.28,5.28,0,0,0,.07,1.26.61.61,0,0,1,0,.27c0,.14-.16.27-.13.43h0s0,0-.05,0a.35.35,0,0,0-.1.35c0,.12-.11.2-.11.33s0,.08,0,.13,0,.11-.06.12a.1.1,0,0,0-.09.13c0,.06.07.07.12.08a.09.09,0,0,0,.12-.08c0-.13.08-.25.13-.38s0-.11.07,0,0,0,0-.06,0-.26-.06-.4-.05-.14.06-.16h0l0,0,0,.06a1.1,1.1,0,0,1,0,.51c0,.13,0,.24,0,.37s-.08.4-.07.61,0,.48.26.64a.11.11,0,0,1,0,.19c-.09.1-.09.16,0,.23s.09.07.07.14a.15.15,0,0,1-.16.11.62.62,0,0,1-.19,0c-.06,0-.1,0-.12.05s0,.09.09.09.29.09.45.1.12.17.25.17h.17l0,0s0,0,0,0-.2-.17-.21-.31h0a1.58,1.58,0,0,1,.48.45c.08.1.19.17.26.27s.07.06.09,0c.21-.17.35,0,.48.11s.3.3.53.31c.07,0,.07.07.07.12s0,.07-.1.06,0,0-.06,0-.29,0-.4-.11c0-.11-.05-.14-.11-.16s-.09.06-.09.12a.14.14,0,0,0-.16,0s0,.07,0,.11.1,0,.14.07a.4.4,0,0,0,0,.34c0,.11.17.11.25.17a.08.08,0,0,0,.1,0s0-.06,0-.09a.5.5,0,0,0-.07-.08c-.15-.1-.14-.21,0-.33h0c.13.23.45.33.47.66.05-.13.14-.08.22-.07s.14,0,.08-.11,0-.13.09-.13.24,0,.28.13.05.08,0,.11-.07,0-.11,0-.1-.09-.12,0,.07.06.12.07.2,0,.25.11h.06c.12-.22.27,0,.4,0h0c.12.06.27,0,.38.1s0,.13.05.2c-.18.06-.32-.07-.49-.08s0,.09,0,.14a.16.16,0,0,1-.21.06.09.09,0,0,0-.08-.1s0,0-.07.06a.35.35,0,0,1-.1.11l-.17,0c0,.06.08,0,.12.08-.12.09,0,.11,0,.18s-.22-.08-.3.06c-.1,0-.21-.15-.3,0h-.1c-.06-.09,0-.2-.07-.3a.87.87,0,0,1,.36,0c.06,0,.07,0,.09-.05a0,0,0,0,0,0-.07s-.14,0-.1-.14.12,0,.19-.05l.08,0c-.19,0-.25-.22-.43-.22v0h0a.15.15,0,0,0,0,.1c.09.13.08.23-.09.28s-.06.11-.1.15h-.08a.36.36,0,0,0-.48,0c.35.12.35.12.21.28a.2.2,0,0,1-.26,0c-.14-.17-.34-.15-.52-.22s-.1-.1-.17,0-.1.19-.2.25,0,0,0,.06a.34.34,0,0,0,.2.06c0,.08-.23.08-.09.22s0,0,0,.05a.07.07,0,0,1-.06,0c-.08-.06-.15-.14-.26-.13l0,0A.4.4,0,0,0,11,15a.35.35,0,0,0-.52,0h-.06l-.05,0-.22,0s0,0-.05,0-.19,0-.19.06.12,0,.18.05a.77.77,0,0,0,.37,0c.07,0,.15,0,.14.13s-.11,0-.17.07v0c.05.06.17.1.11.19s-.14,0-.21-.05-.23-.1-.35,0a.09.09,0,0,1-.1,0,.58.58,0,0,0-.51-.08.57.57,0,0,1,.33.16c.06.05.1.09.05.18s-.11,0-.16,0l-.21-.11c-.05,0-.12-.11-.11,0s0,0,0,0a.75.75,0,0,0-.36-.05c-.24,0-.36-.16-.44-.35s-.06-.12-.24-.16c.17.1.16.2.07.32a.43.43,0,0,0,0,.17l-.13,0a.66.66,0,0,1-.2,0c-.07,0-.09-.07-.09-.13s.07,0,.11,0,.17,0,.19-.06S8,15.16,8,15.1s-.07,0-.09,0c-.14.22-.4.13-.59.23s-.33,0-.47-.13a.19.19,0,0,0-.25,0,.31.31,0,0,1-.21,0c-.11,0-.11.07-.14.14s-.09,0-.13,0-.11-.16-.17-.23a.18.18,0,0,0-.22,0A.43.43,0,0,1,5.24,15a.14.14,0,0,1,0-.14c0-.07.07,0,.11,0a.1.1,0,0,0,.13.09.4.4,0,0,1,.37,0,.37.37,0,0,0-.51-.08.17.17,0,0,0,0-.07c0-.08.09-.2,0-.2s-.24,0-.21.19,0,.09,0,.11-.08,0-.1-.06-.08,0-.13,0c-.34,0-.39-.1-.27-.42H4.41c-.06-.05-.1-.14-.19-.16s0,0,0,0-.28.18-.27.31-.07.09-.14.06-.09-.1,0-.19-.12-.1-.21-.07c-.07-.16-.24-.09-.35-.18S3,14,3.09,13.89s.1-.07.16-.07.06,0,.06-.07-.12-.21.08-.21v0a.12.12,0,0,0-.09-.05.46.46,0,0,1-.49-.25l0-.06v0s0,0,0,0a.17.17,0,0,1-.27.05c-.19-.14-.42-.11-.62-.19s-.27,0-.39-.05c.09-.11.18-.12.36,0L2,12.75H2s.08,0,.08.07h0a.1.1,0,0,0-.1.11c0,.06,0,.07.08.06s.1.08.14,0,.1,0,.14,0a.22.22,0,0,0,.3,0,.18.18,0,0,1,.15,0c.08,0,.13,0,.13-.08s.08-.07.12,0,.09,0,.12,0-.06-.06-.08-.08a.3.3,0,0,0-.2-.06c-.19,0-.33-.11-.48-.19a.32.32,0,0,0-.17-.11c-.14-.14,0-.29,0-.43s0-.06.09,0,.05.08.1.08v.13c0,.14.07.17.16.13a.17.17,0,0,1,.18,0c.14.06.25,0,.35-.09s0-.13,0-.2a.07.07,0,0,0-.07,0c0-.06-.05-.06-.1-.06s0-.05-.08,0h0a.29.29,0,0,0,0-.09c0-.05,0-.09,0-.12s.07,0,.11,0,.15.18.24,0c.2.07.2.07.17-.15a.18.18,0,0,1,0-.12.71.71,0,0,1,.32,0s.1,0,.09.08a.1.1,0,0,1-.11.11c-.18,0-.2.17-.28.27s.11.1.13.18c.17-.05.21.11.26.2s.12.19.07.27-.16,0-.25,0H3.57c0,.05.16.09,0,.14s-.06.08,0,.13.29.13.38-.05.13,0,.16-.05,0,0,0,0l0,0s0,0,0,0-.09-.13-.06-.24,0-.19.16-.25a.5.5,0,0,1,.34,0c.15.05.29,0,.44-.07s0-.12,0-.17,0-.19.15-.19c-.08-.06,0-.24-.18-.18l-.37-.25s.08-.07.12,0,.29-.06.43,0,.07,0,.08-.07a1.48,1.48,0,0,0,.13-.35l.24-.4c0-.05.06-.09,0-.13A.3.3,0,0,1,5.48,10a2.29,2.29,0,0,0-.25-.75A.9.9,0,0,0,5,8.91C5,8.83,5,8.81,5.08,8.77Zm4.11,1.67s0,0-.07-.06,0,0,0,0l.06,0s0,.09,0,.11l-.37,0c-.09,0-.1.08-.09.15s0,.15.13.11a.09.09,0,0,0,.1.05.06.06,0,0,0,0,.06.61.61,0,0,1,.33,0c.1,0,.1,0,.1-.11s.05-.15.15-.15.19-.19,0-.37c-.06,0-.06.12-.13.15s-.1,0-.1.06-.07,0-.11,0Zm1.73,3.4,0,0s0-.05,0-.07a.15.15,0,0,0-.05-.14c0,.07,0,.12,0,.14S10.88,13.82,10.92,13.84ZM8.29,3.24c0-.07,0-.15,0-.2a.07.07,0,0,0-.1,0c0,.08,0,.13.07.18l0,0a.07.07,0,0,0-.09.06,0,0,0,0,0,0,0c.05,0,.06-.05.07-.09S8.29,3.26,8.29,3.24Zm-4.37,10a3.09,3.09,0,0,1-.53-.09c-.05,0-.2,0-.12.12s-.06.06-.07.11.23.1.31.21a.57.57,0,0,0,.4.23.07.07,0,0,1,0,.11.08.08,0,0,1-.13,0c-.12-.08-.13,0-.14.09a.09.09,0,0,0,.07.09s.06,0,.07-.05,0-.07.07-.06c.2,0,.3-.11.42-.23l0,0v0h0a.44.44,0,0,0-.5-.15s-.08.07-.12,0,0-.06.05-.09,0-.19.17-.18a.11.11,0,0,0,.12,0,.07.07,0,0,0,.07,0c.06,0,.14.07.17,0s0-.14-.13-.13S4,13.12,3.92,13.19Zm4.64-2.46c0-.12-.1-.17-.19-.17a.17.17,0,0,0-.18.16.81.81,0,0,0,0,.46s0,.08.08.06,0-.06,0-.1l-.06-.37A.23.23,0,0,1,8.56,10.73ZM5.35,13.4c0-.07,0-.11-.13-.08l-.12,0c-.12,0-.23-.11-.34,0,.16.13.3.28.53.23S5.34,13.47,5.35,13.4ZM8.12,7.69s0,0,.05.06,0,.09-.06.06S8,7.74,8,7.78A.25.25,0,0,0,8,8c0,.05.11.09.06.18s-.24.08-.19.26a.15.15,0,0,1-.09.2l-.18.09a.5.5,0,0,0-.23.64c.1.29.2.57.31.85,0,.08.07.14.17.13a4.48,4.48,0,0,0,.82-.09c.07,0,.12-.06.09-.13a.41.41,0,0,1,0-.24s0-.06,0-.07-.06,0-.07.06a.77.77,0,0,0,0,.37.65.65,0,0,0-.58-.13v.15s0,0-.06,0c-.06-.19-.05-.39-.12-.58s.08-.22.18-.32A2,2,0,0,1,8,9.58a.21.21,0,0,0,.07.22c.07.07.08,0,.12-.06s.08,0,.07,0-.08.09,0,.12.1,0,.11-.07,0-.05.07,0,.12,0,.16,0,0-.09.05-.08.13-.06.13-.17c.17.17.2,0,.23-.11.06.2.05.23-.1.31a.31.31,0,0,0-.06.32s.07,0,.1,0,.36-.14.47-.33a.09.09,0,0,1,.14-.05c.1.05.11,0,.1-.1a1,1,0,0,0-.07-.15s-.05-.11-.1-.12-.05.08-.08.12,0,.09-.05.08-.14,0-.16-.15.17,0,.16-.11.15,0,.14-.1S9.43,9,9.49,9s.16-.21.22-.32,0-.13,0-.17-.09,0-.12.07c-.25.19-.47.41-.71.6a1.31,1.31,0,0,1-.43.16c-.06,0-.09,0-.09-.08s0-.17.06-.22h0c.12,0,.3,0,.31-.18a.9.9,0,0,0-.13-.59c0-.08-.09,0-.11,0a1.43,1.43,0,0,0,0,.36c0,.12,0,.18-.16.11a.43.43,0,0,0-.18-.06C8,8.68,8,8.55,8,8.44a1.83,1.83,0,0,1,.08-.25h.19c.13,0,.2-.09.14-.21s-.15-.17-.22-.26S8.15,7.65,8.12,7.69Zm1.59.22s0,.11.07.12.07-.06.07-.11a1.45,1.45,0,0,0,0-.55.16.16,0,0,0-.18-.12c-.1,0,0,.09,0,.14a2.45,2.45,0,0,1,0,.27.38.38,0,0,0-.24.15c-.11.12-.05.24.22.38a.61.61,0,0,1,0-.53C9.75,7.72,9.71,7.82,9.71,7.91Zm-.56-1.6s0,0,0,0,0,0,0,0,0,.2-.17.14,0,.06,0,.09l.18.25a.23.23,0,0,0,.11.22c.13.1.12,0,.15-.12a4.55,4.55,0,0,0,.24-.82S9.75,6,9.67,6s-.13.12-.12.14,0,.19-.11.21c.05.15-.16.15-.15.28-.13-.06.06-.21-.09-.25S9.19,6.31,9.15,6.31Zm1.42,6.93c.16,0,.1-.06.08-.13s-.09-.06,0-.12.09,0,.14,0,.18,0,.27-.05,0-.06,0-.08c-.35-.17-.67-.42-1.09-.27.06.08,0,.19-.13.17a1.26,1.26,0,0,0-.38.1c-.1,0-.12.11,0,.18s.2.28.05.46a.1.1,0,0,0,.08.17c.05,0,.1,0,.07-.07s-.07-.18,0-.2a.22.22,0,0,1,.29.12c0,.07.07.09.1.14s.07,0,.12.05.05,0,.05,0,0-.06,0-.06-.09-.07-.08-.14a.09.09,0,0,1,.08-.06c.07,0,.11.05.09.12a.1.1,0,0,0,0,0c.08-.1.21,0,.29-.08s.13-.09.08-.16-.09.05-.16.05S10.49,13.24,10.57,13.24ZM7.14,8.74s0,.07,0,.1S7,8.91,7.15,9s0,.09,0,.16a1.66,1.66,0,0,1,.14.54s0,.06,0,.05.06-.07,0-.11a2,2,0,0,1-.09-.42c0-.37,0-.42.33-.59.06,0,.13,0,.13-.12s-.07-.14-.17-.13a.81.81,0,0,1-.43-.08.53.53,0,0,0-.37,0C6.87,8.47,7.06,8.55,7.14,8.74Zm1.35-.9a1.82,1.82,0,0,1,.34.95c0,.13-.09.23-.26.26s-.17,0-.14.1.12,0,.18,0A.87.87,0,0,0,9,8.94.49.49,0,0,0,9,8.53a1.1,1.1,0,0,0-.55-.84C8.45,7.76,8.45,7.8,8.49,7.84Zm.89,3.59a.51.51,0,0,0,.42.25c.06,0-.08-.13,0-.15s.13,0,.19.08.07.17.2.18c-.09-.24-.19-.44-.48-.49a1.6,1.6,0,0,1-.51-.2c-.06,0-.12-.08-.19,0a.09.09,0,0,0,0,.11c0,.07.1.05.16.06s.31,0,.4.14A.36.36,0,0,0,9.38,11.43ZM7.83,14.58a.55.55,0,0,0-.28-.07c-.06,0-.17,0-.11.16s0,0,0,.06-.06.09,0,.11.4.12.61.18C7.9,14.89,8,14.67,7.83,14.58Zm1.28-6.9c0,.09,0,.16-.11.16s-.18.06-.08.19.06.19.16.16S9.16,8,9.16,8s0-.08.05-.1.15-.12.07-.27S9.1,7.41,9,7.36A2.15,2.15,0,0,1,9.11,7.68Zm.34.84a1,1,0,0,1,.47-.19s.09,0,.1,0,0-.09-.07-.1-.19-.07-.28,0-.33.15-.47.29-.15.16-.06.29C9.28,8.73,9.34,8.6,9.45,8.52ZM7.76,8.18c0-.12-.12-.13-.22-.14L7.22,8s-.06,0-.08,0,0,.05,0,.07.21.21.38.15S7.76,8.35,7.76,8.18Zm-.34,1.87a.34.34,0,0,1,.08.31s0,.08,0,.11a.08.08,0,0,0,.11,0,.07.07,0,0,0,0-.1,2.31,2.31,0,0,0-.24-.57C7.38,9.88,7.3,9.93,7.42,10.05Zm3.87,2.85a1,1,0,0,0,.12.54c.07.19-.12.35,0,.57A1.33,1.33,0,0,0,11.29,12.9ZM9.49,15c.09,0,.14,0,.07-.11s0-.12,0-.2a.37.37,0,0,1-.35,0C9.27,14.9,9.28,15.08,9.49,15Zm.86-2.68c-.1,0-.25,0-.24.08s.13,0,.2,0a2.8,2.8,0,0,1,.5.12s.09,0,.1,0,0-.06-.09-.06-.28-.17-.46-.15ZM7,14.47c.08,0,.13-.12.13-.16s-.15-.14-.25-.16,0,.11-.07.13A.19.19,0,0,0,7,14.47Zm1.08,0s.08.11.13.07a.18.18,0,0,0,0-.22.26.26,0,0,0-.34-.05Zm-3,0c0-.12-.15-.13-.23-.19s-.11,0-.13.1.16.18.28.18S5.08,14.5,5.07,14.46Zm.18-5.79v0c.11,0,.18-.07.27-.09s0-.13,0-.2l-.06,0S5.23,8.63,5.25,8.67Zm6,4.71c0-.07,0-.11-.08-.16s0,0-.07,0-.08.12,0,.19a.33.33,0,0,1,.07.28l.05,0Zm.42.89c.05,0,.11,0,.1-.06a.22.22,0,0,0-.19-.18.17.17,0,0,0-.16.12C11.51,14.25,11.62,14.24,11.7,14.27Zm-7.12-.35s-.08-.05-.11,0a.37.37,0,0,0,0,.15s.06,0,.1,0,.21,0,.33,0A.81.81,0,0,1,4.58,13.92ZM6,14.28c0-.09-.06-.1-.13,0s-.05,0-.06.05-.13.07-.07.15.11,0,.17,0l.14,0A.54.54,0,0,1,6,14.28Zm1.8-7.89a1,1,0,0,1-.2.14c-.07,0,0,.14.06.21C7.67,6.59,8,6.59,7.83,6.39ZM4.45,12.31s-.07,0-.09,0,0,.06,0,.09.21.09.37.06A.88.88,0,0,0,4.45,12.31ZM7.2,15a.07.07,0,0,0-.06-.08c-.1,0-.2,0-.19-.18s0,0-.06,0a.06.06,0,0,0,0,.08.49.49,0,0,0,.31.24S7.2,15,7.2,15Zm4.1-.24s.1,0,.11-.05,0-.09-.08-.08-.24-.06-.39,0Zm-6.14-.65a.08.08,0,0,0,.12,0,.08.08,0,0,0,0-.1.58.58,0,0,0-.37-.14C5,13.94,5.1,14,5.16,14.07Zm3.52.36a.12.12,0,0,0,.13,0s0-.06-.05-.09a.24.24,0,0,0-.2-.08C8.61,14.29,8.54,14.42,8.68,14.43Zm-2.3-.12s.13,0,.12-.07-.12-.12-.21-.14a.06.06,0,0,0-.09.05A.29.29,0,0,0,6.38,14.31ZM4.73,13c0-.06-.05-.07-.1-.06s-.21,0-.21.07.15,0,.18.06S4.73,13.05,4.73,13ZM9.06,8.39s0,.11.08.09a.43.43,0,0,0,.19-.21s0,0-.06-.06A.29.29,0,0,0,9.06,8.39Zm-.32,6.39c-.05,0-.12,0-.11.12s0,.1.08.1a.08.08,0,0,0,.1-.1S8.84,14.77,8.74,14.78Zm-2.46-.24c.06.05-.06.09,0,.14s.17,0,.27,0C6.45,14.56,6.38,14.51,6.28,14.54Zm6.14-.08c0-.07-.09-.07-.15-.08s-.11,0-.1.07.05.07.1.06S12.41,14.57,12.42,14.46ZM8.36,8.63c.06,0,.06-.05.06-.09s0-.11-.06-.1-.11.06-.14.11S8.31,8.62,8.36,8.63Zm.42-2.38c0,.13.14.15.22.22C9,6.32,8.93,6.25,8.78,6.25Zm-2.26-2a0,0,0,0,0-.06.06.17.17,0,0,0,.19.13C6.6,4.34,6.63,4.24,6.52,4.23Zm.8,1.86S7.3,6,7.27,6s-.1.06-.12.11,0,.07,0,.08S7.29,6.14,7.32,6.09ZM4,8c.07-.11.07-.11,0-.3A.51.51,0,0,0,4,8ZM6.64,3.79s0-.1-.08-.09-.11,0-.11.08a.06.06,0,0,0,.07.08S6.63,3.86,6.64,3.79ZM6.41,13.86c0,.05.08,0,.12,0s0-.11.06-.17S6.41,13.75,6.41,13.86Zm6.11.35-.34-.11v.05C12.28,14.15,12.36,14.26,12.52,14.21Zm-1.35.08c.1,0,.15-.12.13-.29C11.22,14.12,11.22,14.22,11.17,14.29ZM11,13.65s0,.09,0,.09.06-.05.05-.09l0-.18A1.24,1.24,0,0,0,11,13.65ZM7.71,6c0,.12.08.17.1.25C7.81,6.11,7.81,6.11,7.71,6ZM5.48,6.2c-.07.06-.06.13-.07.21S5.5,6.29,5.48,6.2Zm5.88,6.31,0,0v0l0,0Zm-8.65.57h0ZM7.09,8h0Z"/><path class="cls-1" d="M3.6,14.49a.14.14,0,0,1,.07.19c0,.06,0,.09.06.11s.14,0,.18,0-.06-.06-.09-.1,0,0-.11-.08l.21-.05s.11,0,.11-.06-.08,0-.13-.05.15-.32.27-.31,0,0,0,0,0,.25,0,.38l.21-.22h.13c-.12.32-.07.39.27.42.05,0,.1,0,.13,0s0,.08.1.06,0-.07,0-.11.16-.2.21-.19,0,.12,0,.2a.17.17,0,0,1,0,.07h0s-.09,0-.11,0a.14.14,0,0,0,0,.14.43.43,0,0,0,.47.11.18.18,0,0,1,.22,0c.06.07.11.15.17.23s-.16.11-.11.22.14.13.24.14h.16c.08,0,.11,0,.05-.11s-.14-.18-.21-.26,0-.15.14-.14a.31.31,0,0,0,.21,0,.19.19,0,0,1,.25,0c.14.13.27.25.47.13s.45,0,.59-.23c0,0,.07,0,.09,0s.12.13.11.19-.12.06-.19.06-.1,0-.11,0,0,.12.09.13a.66.66,0,0,0,.2,0c-.05.06,0,.1,0,.13a.14.14,0,0,0,.16,0,.07.07,0,0,0,0-.12s-.08,0-.08-.07a.43.43,0,0,1,0-.17c.09-.12.1-.22-.07-.32.18,0,.19,0,.24.16s.2.36.44.35a.75.75,0,0,1,.36.05s.06,0,0,0,.06-.07.11,0l.21.11c.05,0,.09.12.16,0s0-.13-.05-.18a.57.57,0,0,0-.33-.16.58.58,0,0,1,.51.08.09.09,0,0,0,.1,0c.12-.1.23,0,.35,0s.13.15.21.05-.06-.13-.11-.19v0c.06,0,.16,0,.17-.07s-.07-.11-.14-.13l0-.06A.35.35,0,0,1,11,15a.4.4,0,0,1,.15.34c-.08,0-.2,0-.17-.2s-.15-.08-.26.06c.11.05.2.1.23.23s.13.1.2.13a.07.07,0,0,0,.08,0c0-.08-.07-.09-.06-.16s.18.07.26.13a.07.07,0,0,0,.06,0s0,0,0-.05.05-.14.09-.22a.34.34,0,0,1-.2-.06s-.06-.05,0-.06.12-.18.2-.25.12,0,.17,0,.38.05.52.22a.2.2,0,0,0,.26,0c.13.11.35.13.38.35,0,0,0,.06.06,0s.3,0,.45,0a.17.17,0,0,1,.17,0c-.06.05,0,.17-.11.18s-.16.11-.22,0a.51.51,0,0,0-.67-.05c-.15.13-.23.12-.36,0a.91.91,0,0,1-.09-.17c-.12-.2-.29-.26-.42-.11a.72.72,0,0,0-.1.29.12.12,0,0,1-.11.11c-.15,0-.33.08-.44-.11s-.08,0-.12,0-.14,0-.17-.07-.13-.06-.22,0-.34.18-.55.11-.12,0-.17.06-.06.05-.05.09.05,0,.07,0,.16-.05.24-.07a1.08,1.08,0,0,1,.56.11.08.08,0,0,1,.06.1c0,.05-.06,0-.09,0a4,4,0,0,1-.6,0c-.36,0-.72,0-1.08,0-.09,0-.21,0-.25-.1s-.08,0-.13,0a1.13,1.13,0,0,1-.88-.12.07.07,0,0,0-.07,0c-.09,0-.14,0-.18-.11a.24.24,0,0,0-.14-.1.4.4,0,0,0,0,.32s0,.06-.08.06-.38.11-.55-.08-.08,0-.13,0a1.24,1.24,0,0,1-.27,0c-.11,0-.24,0-.26-.15s-.09-.11-.18-.09a.06.06,0,0,1,0-.06s.1,0,0-.09a.32.32,0,0,0-.39,0c-.08,0,0-.19-.13-.17l-.13,0c0-.13-.13-.11-.23-.09l-.1,0,0,0s0,0,0,0-.22,0-.33,0c.12.21.06.31-.17.34a1.07,1.07,0,0,1-.4,0,1.35,1.35,0,0,1-.49-.16A.79.79,0,0,0,3,15.07c-.05,0-.12,0-.13,0s-.15-.12-.24-.16-.08,0-.06-.06.06-.06.08,0,.29,0,.34.16c0,0,.06,0,.09,0a1.8,1.8,0,0,1,.32.06s.11,0,.11,0,.06-.1,0-.16a.09.09,0,0,1,0-.1h0c.09,0,.19-.08.13-.14s0-.27,0-.4.22,0,.21.07,0,.13,0,.19Zm8.64.88a.23.23,0,0,0,.16.17c.12,0,0-.16.14-.2l-.18,0C12.3,15.31,12.23,15.31,12.24,15.37ZM4,14.78s0,.05,0,.07.07,0,.1,0,.08,0,.12,0a.34.34,0,0,0,.19.09.1.1,0,0,0,0,0s0,0,0,0l-.34-.14A.16.16,0,0,0,4,14.78Zm2.91.87c-.06,0-.09-.13-.19-.08a0,0,0,0,0,0,.06c0,.1.12.1.2.09H7S6.94,15.66,6.93,15.65Zm4.28,0c0,.06.08.09.14.08s.14,0,.14-.1-.09,0-.14,0S11.21,15.56,11.21,15.66Zm-2,.22s.06,0,0-.06-.05-.14-.14-.15-.05,0-.05.07S9.12,15.83,9.17,15.88ZM3.85,15c-.06,0-.05.05-.05.09s0,.09.05.1,0-.06,0-.09S3.91,15,3.85,15Zm.26.13a0,0,0,0,0,0,.06c0,.08.11,0,.19,0S4.19,15.11,4.11,15.14Z"/><path class="cls-1" d="M6.13,4.25v0l0,0C6,4,5.87,3.81,5.76,3.58s-.12-.22,0-.25.14-.13.15-.23H6c0,.13,0,.31.2.31s.2,0,.3,0,0,0,0-.06,0,0-.06,0l-.15,0c0-.08-.08-.07-.1-.12s.08,0,.09-.06.3-.06,0-.18c0,0,0-.1,0-.16s0-.14,0-.22,0-.16.1-.16.08.17.1.15.16-.13.14-.25.06,0,.09,0a.21.21,0,0,1,.05.2.09.09,0,0,1,0,.07c0,.06,0,.23-.12.2s-.19-.11-.13.09c0,0-.06,0-.08.06s0,.06,0,.1a.05.05,0,0,0,.08,0c.1-.08.23,0,.32-.12s.12,0,.16.05,0,.08-.07.1-.11.07-.05.2c0-.16.27,0,.19-.24,0,0,0-.08.09-.07s.13,0,.1-.15,0-.15.1-.12,0,.11.07.13-.11.08,0,.14a.15.15,0,0,0,.17,0c.08-.1.19-.1.29-.15s.08,0,.11,0S8,3,7.9,3s-.14,0-.12.1.09,0,.14,0,.14,0,.14,0a2.27,2.27,0,0,0,.16.62c0,.09,0,.21.17.17s.06,0,0,.06a1.91,1.91,0,0,1,0,.48.34.34,0,0,0,.11.43c.05,0,.06.06,0,.11a.38.38,0,0,1-.17.14c-.07,0-.11,0-.09,0s0-.15-.06-.22-.05-.27,0-.43S8.1,4.33,8,4.32l-.07,0h0s0-.09-.05-.07a.12.12,0,0,1,0-.13C8,4.06,8,4,7.94,3.9s.12,0,.12,0A.19.19,0,0,0,8,3.69s-.06,0,0,.05,0,.1,0,.15a.15.15,0,0,1-.13,0c-.07-.11-.14,0-.21,0l0-.09,0,0s0,0,0,0l-.16,0s0,0,0-.07.05,0,.06-.07a.36.36,0,0,0,.21,0s0,.07,0,.1-.08.05,0,.07.07,0,.07,0,.08-.21-.09-.25-.1-.12,0-.21a.1.1,0,0,0,0-.16c-.06-.07-.12,0-.18,0s-.14.08-.22.09A.64.64,0,0,1,7,3.41s0,0,0,0,.08,0,.12,0,.18,0,.18.12-.09.07-.09.15.13.17,0,.23c0-.2-.22-.32-.26-.52a.1.1,0,0,0-.12-.07c0-.08.06-.17,0-.22a.09.09,0,0,0-.14,0c-.06.08-.06.13.05.13s.07.08.13,0c-.05.14-.18.16-.29.2-.26.09-.26.08-.16.35A.19.19,0,0,1,6.4,4s0,.1-.07.09-.08,0-.09,0,0,.12,0,.14,0,.2,0,.31,0,0,0,0,0,0,0,0S6,4.6,6,4.46s0,.1-.06.1C5.82,4.39,5.89,4.28,6.13,4.25Zm0-.33c.06,0,.05,0,.05-.09s0-.19-.16-.2S6,3.7,6,3.75,6.07,3.92,6.18,3.92Z"/><path class="cls-1" d="M4.11,12.61c0,.08-.1-.06-.16.05s-.21.18-.38.05-.09-.1,0-.13,0-.09,0-.14h.06c.09,0,.19.11.25,0s0-.19-.07-.27S3.72,12,3.55,12c0-.08-.23-.05-.13-.18s.1-.28.28-.27a.1.1,0,0,0,.11-.11c0-.07-.05-.07-.09-.08a.71.71,0,0,0-.32,0c-.12,0-.22,0-.23-.15s0-.06-.06-.08a.18.18,0,0,1,0-.24c.05-.08.09-.13.15,0s.18.16.3.22.3,0,.43.09,0,0,0,0,.17-.09.26-.08.19,0,.22.2c0-.09,0-.13,0-.16s-.12-.2-.21-.14-.07,0-.07,0a.34.34,0,0,0-.08-.17c-.1-.12,0-.14.07-.14a.78.78,0,0,1,.5,0,.52.52,0,0,0,.37,0,.22.22,0,0,1,.25.13,1.48,1.48,0,0,1-.13.35c0,.05-.05.09-.08.07s-.3,0-.43,0-.09,0-.12,0-.1,0-.08,0a.11.11,0,0,0,.06.11.89.89,0,0,0,.39.09c.18-.06.1.12.18.18-.16,0-.19.06-.15.19S5,12,5,12s-.29.12-.44.07a.5.5,0,0,0-.34,0c-.12.06-.13.13-.16.25s0,.17.06.24Zm-.2-.91a.12.12,0,0,0-.07.11s0,.06.09.06a.32.32,0,0,1,.19.07.15.15,0,0,0,.23,0s.07,0,.11.05.14,0,.13-.1,0-.13.12-.1.08,0,.1,0,0-.08,0-.12-.26-.14-.41-.09a.09.09,0,0,0,0,.15c.1,0,.09.1.11.14s-.06.07-.1.09A.4.4,0,0,0,3.91,11.7Zm.49-.37a.23.23,0,0,0-.24-.06C4.23,11.35,4.3,11.33,4.4,11.33Z"/><path class="cls-1" d="M11.25,12.39c0-.14-.2-.17-.21-.31h0a1.58,1.58,0,0,1,.48.45c.08.1.19.17.26.27s.07.06.09,0c.21-.17.35,0,.48.11s.3.3.53.31c.07,0,.07.07.07.12h.14c.08,0,.07-.08.08-.13s0-.12-.08-.1c-.36.07-.44-.21-.56-.43a.9.9,0,0,0-.15-.19c-.08-.07-.16-.1-.23,0s-.14.08-.19,0-.08-.2-.22-.19-.09-.07-.13-.12-.12-.3-.31-.36-.12,0-.14.07,0,.15-.1.09-.18-.11-.13-.22c.12-.29.12-.35-.11-.57a.37.37,0,0,1-.14-.3c0-.39-.06-.78,0-1.19a.55.55,0,0,0-.24-.52,1.1,1.1,0,0,1,0,.51c0,.13,0,.24,0,.37s-.08.4-.07.61,0,.48.26.64a.11.11,0,0,1,0,.19c-.09.1-.09.16,0,.23s.09.07.07.14a.15.15,0,0,1-.16.11.62.62,0,0,1-.19,0c-.06,0-.1,0-.12.05s0,.09.09.09.29.09.45.1.12.17.25.17h.18Z"/><path class="cls-1" d="M5.63,5.33c-.06-.07-.16-.08-.13-.11s.08-.14.15-.12S5.72,5,5.74,5h0c.2.09.2.09.21-.13a.08.08,0,0,1,0,0c.13,0,.08.12.09.19s0,.1,0,.12.29.2.48.13c0,0,.19,0,.19.13s-.15,0-.15.08a.12.12,0,0,0-.08.12h0l-.07,0c-.06,0-.07.05-.09.09s-.1,0-.17-.05,0,.14,0,.21,0,.14.11,0,.1,0,.14,0,.15,0,.22,0,0,.07,0,.1,0,.06,0,.08.06,0,0,.08-.07,0-.1,0-.07-.06-.1,0,0,.08,0,.12.14.11.13.14c-.06.19.13.18.2.25s.13,0,.15.1,0,0,0,.06-.1-.06-.15-.09h0c-.09.22.06.32.23.42,0,0,0-.1.13-.1s.06-.06.06-.11l0,0a.11.11,0,0,1,.09.06c0,.09.12.1.21,0h0c.05,0,.13.09.14-.06s.09,0,.13,0a.42.42,0,0,1,0,.48c-.05,0-.1,0-.15,0a.13.13,0,0,1-.19-.11c0-.09,0-.09,0-.28,0,.13-.12.19-.09.29l-.08.1a.19.19,0,0,1-.24-.1A.12.12,0,0,0,7,7.22.34.34,0,0,1,6.73,7s-.05-.09-.1,0-.08,0-.12,0-.06-.13-.1-.18-.12-.19-.11-.32,0-.14,0-.2.14-.07.09-.14-.19,0-.27,0,0,.09,0,.13.06.06,0,.1S6,6.38,6,6.3a.82.82,0,0,1,0-.49c0-.07.1-.14,0-.16s-.21-.07-.25.07,0,.06-.06,0-.1,0,0-.06,0-.08,0-.12-.1-.05-.11-.12S5.51,5.31,5.63,5.33Zm.09.14a.08.08,0,0,0,0,.09c.06,0,.09,0,.09-.06a.06.06,0,0,1,0,0s.1.08.08,0-.07,0-.1,0A.09.09,0,0,0,5.72,5.47Z"/><path class="cls-1" d="M3,13.71c0-.14-.07-.2-.23-.24.08.17.22.29.09.45L3,14a.21.21,0,0,0-.12.18.28.28,0,0,0-.23-.2c0-.09.08,0,.13,0s0,0,.06-.05,0,0,0-.06l-.09,0c-.06,0-.13-.09-.19,0s.06.11,0,.17a1,1,0,0,0-.38.07A.11.11,0,0,1,2,14a.06.06,0,0,1,0-.09c.06-.06,0-.1,0-.15a.87.87,0,0,0-.22-.21s-.05-.05-.07,0-.15,0-.15,0-.15-.12-.25-.11a1.89,1.89,0,0,1-.67,0,.37.37,0,0,0-.11,0c0,.11-.05.08-.1.07s0-.07,0-.1,0-.09.1-.08c.25,0,.49-.14.75,0-.07-.11-.23-.08-.31-.2.2,0,.36.09.55.09,0-.1-.08-.14-.16-.13a.14.14,0,0,1-.14-.16c0-.09.08-.06.13-.06a.2.2,0,0,0,.12-.06c.05,0,.1-.06.16,0s.07.05.1,0,0-.06-.07-.08-.29,0-.44-.07-.16-.1-.24,0-.22,0-.29-.06a.2.2,0,0,1,0-.28c.08-.06.25,0,.29.11a.08.08,0,0,1,0,0c0,.14.16.12.18.1s.19,0,.27,0a1,1,0,0,0,.24.1.47.47,0,0,1,.29.14L1.9,13c-.18-.07-.27-.06-.36,0,.12.09.29,0,.39.05s.43,0,.62.19a.17.17,0,0,0,.27-.05h0a.46.46,0,0,0,.49.25.12.12,0,0,1,.09.05v0c-.2,0-.09.13-.08.21s0,.07-.06.07-.1,0-.16.07S3,13.79,3,13.71ZM2,13.16s-.06,0-.05.06.07.15.15.14.1,0,.11.05-.1,0-.09.08.07.07.12.08a.32.32,0,0,0,.17,0s.11.05.12,0,0-.09-.1-.12l-.12,0A.6.6,0,0,0,2,13.16Zm.3.69a.1.1,0,0,0,.11-.1c0-.09-.08-.08-.12-.08a.09.09,0,0,0-.11.08C2.16,13.82,2.22,13.85,2.28,13.85Zm-.69-.67s-.06.05-.05.06.1.07.19.1S1.68,13.19,1.59,13.18Z"/><path class="cls-1" d="M1.91,12.6a.19.19,0,0,1,.15-.24c.06,0,.11,0,.09-.12s-.08-.05-.13-.05a1.09,1.09,0,0,0-.25,0c0,.06.09,0,.12.11-.23.05,0,.17,0,.25l-.07,0c0-.11-.19-.12-.16-.28s-.1-.19-.24-.15a.42.42,0,0,0-.47-.22s-.12,0-.1-.12.1,0,.16,0a1.72,1.72,0,0,0,.39.1c.21,0,.21,0,.21-.17h0c.1,0,.17-.07.27-.07s.28.07.27-.16l.07-.05a.13.13,0,0,0,.06-.15c.09,0,.19,0,.27,0a1.61,1.61,0,0,0,.43.17.39.39,0,0,1,.27.18c-.09.16-.16,0-.24,0s-.07-.05-.11,0,0,.07,0,.12a.29.29,0,0,1,0,.09c0,.12-.09.07-.15.09s-.2,0-.25.09-.07,0-.1-.08-.09,0-.09,0-.14.29,0,.43c-.06.06-.06.13,0,.17a.1.1,0,0,0,.16-.06c.15.08.29.21.48.19a.3.3,0,0,1,.2.06s.1,0,.08.08-.07.07-.12,0-.12,0-.12,0,0,.1-.13.08a.18.18,0,0,0-.15,0,.22.22,0,0,1-.3,0s-.12-.1-.14,0-.09,0-.14,0S2,13,2,12.92a.1.1,0,0,1,.1-.11h0c0-.05,0-.06-.08-.07S1.93,12.67,1.91,12.6Zm.23-.71c0-.11-.14-.06-.21-.08s-.15,0-.14.06.16.07.23.1S2.16,12,2.14,11.89Zm-.56.2v0h0v0Z"/><path class="cls-1" d="M12.34,13.42h0c-.11.12-.12.23,0,.33a.5.5,0,0,1,.07.08s0,.05,0,.09a.08.08,0,0,1-.1,0c-.08-.06-.2-.06-.25-.17a.4.4,0,0,1,0-.34c0-.07-.13,0-.14-.07s0-.09,0-.11a.14.14,0,0,1,.16,0c.07,0,.13,0,.2,0s.23.22.4.11.05,0,.06,0a.28.28,0,0,0,.31.19.28.28,0,0,1,.27.07.32.32,0,0,0,.32.09,3,3,0,0,0,.42-.14.3.3,0,0,1,.26,0,.32.32,0,0,1,.19.32.23.23,0,0,1-.25.15c-.06,0-.2-.06-.24.08h0c-.13,0-.28-.2-.4,0h-.06c-.05-.13-.16-.1-.25-.11s-.13,0-.12-.07.08,0,.12,0,.08,0,.11,0,0-.07,0-.11-.17-.13-.28-.13-.16,0-.09.13,0,.12-.08.11-.17-.06-.22.07c0-.33-.34-.43-.47-.66Zm2.11.46c0-.11-.09-.15-.2-.14s-.16,0-.15.09.12.13.2.14S14.45,14,14.45,13.88Z"/><path class="cls-1" d="M4.7,6.69a.68.68,0,0,1,.24.36l0,0s0,0-.07,0-.11-.13-.2,0-.16,0-.24.07c.07.11.2,0,.31.09s.18.31.24.47.09.14.16.06.11,0,.12,0,.06.1.13.09.07,0,0-.08-.13-.27-.21-.4a5.85,5.85,0,0,0-.41-.92s0-.05,0-.07-.11-.11-.17-.17S4.44,6,4.37,5.88s-.11,0-.12.07a.24.24,0,0,1,0,.14c.08,0,.12,0,.11.09s0,.1-.08.08-.06-.08,0-.13a.06.06,0,0,0,0,0l-.15,0s0,.06,0,.07.09.17.17.23.06,0,.06.09-.08,0-.12,0a1.8,1.8,0,0,1-.32-.06c0,.12.11.14.17.19l.3.19c.08,0,.17,0,.17-.09s0-.2.18-.12Z"/><path class="cls-1" d="M4.68.75c0-.05,0-.12.09-.14A3.38,3.38,0,0,0,5.48.25c.07,0,.18-.13.22-.1s.23-.17.36,0C6.13,0,6.25,0,6.37,0s.18,0,.14.15,0,.23-.14.25c.07.06.2,0,.17.12s0,0,0,0l-.06,0a.14.14,0,0,1-.11,0H6.27l0,0v0h0v0A.32.32,0,0,1,6,.74s0-.1-.1-.13S6,.39,5.77.43a.3.3,0,0,0-.24,0c-.06,0,0,.05,0,.07a.14.14,0,0,0-.1.08s-.11-.05-.16,0,0-.1,0-.13S4.9.72,4.71.78ZM5.31.47h0l0,0h0v0Z"/><path class="cls-2" d="M5.77.43a.3.3,0,0,0-.24,0c-.06,0,0,.05,0,.07s.07,0,0,.08-.09,0-.14,0-.11-.05-.16,0l0,0c0,.06,0,.12-.06.13S5.07.8,5.08.73s0,0,0,0c0,.16-.22.15-.3.25s-.19.13-.27.21-.08.19-.07.29.14-.06.2.05.15.08.22,0c-.1-.12-.13-.22.05-.29s.29-.14.44-.2a.17.17,0,0,1,.23.05s.13,0,.12-.08.06-.1.13-.09S5.93.8,6,.74s0-.1-.1-.13a0,0,0,0,1,0,0H5.81C5.66.56,5.77.48,5.77.43Z"/><path class="cls-1" d="M2.53,11.14a.88.88,0,0,1,.19-.24c.1-.12.06-.21-.07-.28s-.12-.08,0-.16a.47.47,0,0,0-.3-.1.46.46,0,0,1-.3-.15.08.08,0,0,0-.14,0s0,.08,0,.12L2,10.5c.08.14,0,.21-.12.22h0a1.25,1.25,0,0,1,0,.19c-.07.15,0,.24.14.29a.54.54,0,0,1,0-.1C2,11,2,11,2,10.94s.08,0,.11.07.12.1.17.06S2.46,11.09,2.53,11.14Z"/><path class="cls-1" d="M14.88,14.39a.44.44,0,0,1,.36.21.16.16,0,0,1-.1.27A.26.26,0,0,0,15,15c-.12.15-.23.12-.33-.05s-.25-.27-.34-.23-.18,0-.24-.11,0-.1,0-.14.31.14.49.08c0-.07-.06-.13-.05-.2A1.17,1.17,0,0,0,14.88,14.39Zm.25.28c0-.11-.13-.12-.21-.14s-.09.05-.09.12.06.12.13.17S15.14,14.78,15.13,14.67Z"/><path class="cls-1" d="M5.78.92c-.07,0-.15,0-.13.09s-.08.07-.12.08.11.23.17.34.1.26-.1.34a.13.13,0,0,0-.09.05l0,0,.06,0a.16.16,0,0,0,.15-.08A.22.22,0,0,1,6,1.72s.1-.08.13,0S6,1.75,6,1.79s-.07,0,0,.07,0,0,.08,0,0,.07.05.1.18-.06.27-.05l0-.16c-.08,0-.2.08-.16-.1s-.06-.07-.1-.07-.17,0-.09-.15.14-.2,0-.27c-.07.1-.14.07-.18,0s-.15-.12,0-.17Z"/><path class="cls-1" d="M4.81,1.53c-.07.09-.17.1-.22,0s-.13-.06-.2-.05a.25.25,0,0,1,0,.09s.08.13,0,.14-.18-.15-.16-.17,0-.11-.08-.14,0,0,0-.07c-.09.17-.09.18.07.28a.14.14,0,0,1,.05.08c.08.2.17.39.25.59a.14.14,0,0,0,.15.09A3.65,3.65,0,0,0,4.45,2a.21.21,0,0,1,0-.27c.08-.06.17,0,.23.08s0,0,0,0,.07.18.14.13,0-.17,0-.25A.25.25,0,0,0,4.81,1.53Z"/><path class="cls-1" d="M13.56,14.82c-.12.09,0,.11,0,.18a.35.35,0,0,0,.18.05.41.41,0,0,1,.33.23.27.27,0,0,0,.27.18l.24,0c.08,0,.16,0,.18-.09s-.07-.13-.14-.15h-.08c-.05,0,0,.06,0,.09s0,.06,0,.09a.07.07,0,0,1-.09,0c-.11-.08-.27-.1-.25-.29a.28.28,0,0,0-.28-.27A1.54,1.54,0,0,1,13.56,14.82Z"/><path class="cls-1" d="M5.18,5.22l.1,0A1,1,0,0,1,5.7,5l0,0a3.57,3.57,0,0,0-.1-.35s0,0,0,0h0c.15,0,.12-.08.1-.16s0-.06-.08,0-.1.09-.15,0L5.38,4.1s0-.07,0-.09.06,0,.07,0a.75.75,0,0,0,.07.12s0,0,0-.07,0-.23-.18-.23-.1-.09-.12-.15A6.3,6.3,0,0,0,4.88,3c-.06,0,0,.06,0,.09.19.43.37.87.57,1.3,0,.11.11.22.17.34s0,.15-.08.2A.67.67,0,0,0,5.18,5.22Z"/><path class="cls-1" d="M6.69.66c0-.05,0-.05-.05-.07h0c0-.14.1-.18.22-.11a.5.5,0,0,0,.42.12h0c0,.07.06.07.1.07A.17.17,0,0,1,7.44.8c-.05,0-.1,0-.08.08s-.07.16-.14.17A.61.61,0,0,0,7,1.11C7.13.9,6.93.88,6.86.78c-.06.08,0,.16,0,.25C6.79,1,6.72,1,6.72.89S6.67.74,6.69.66Zm.46.22s0,0,0,0l0,0s0,0,0,0Z"/><path class="cls-1" d="M15.75,14.51c-.07.09-.12.18,0,.25s.09.1.14,0,.1-.14,0-.19-.07-.14,0-.21.12-.19,0-.25-.17-.15-.3-.08.07,0,.11,0,.12.07.1.14-.09,0-.14,0l-.22-.08h-.07s0,.05,0,.07C15.43,14.42,15.61,14.42,15.75,14.51Z"/><path class="cls-1" d="M2.41,14.21c-.09,0-.11-.18-.2-.12s0,.17,0,.26-.16,0-.19.07a.25.25,0,0,0,.08.23.24.24,0,0,0,.26,0c.2-.07.38-.22.61-.17-.13-.13-.3-.09-.45-.14S2.37,14.33,2.41,14.21Z"/><path class="cls-1" d="M10.25,9.09a.35.35,0,0,0-.1.35c0,.12-.11.2-.11.33s0,.08,0,.13,0,.11-.06.12a.1.1,0,0,0-.09.13c0,.06.07.07.12.08a.09.09,0,0,0,.12-.08c0-.13.08-.25.13-.38s0-.11.07,0,0,0,0-.06,0-.26-.06-.4-.05-.14.06-.16a.08.08,0,0,0-.07-.08h0S10.27,9.08,10.25,9.09Z"/><path class="cls-2" d="M2.41,14.21c0,.12,0,.14.14.16s.32,0,.45.14.14.05.19,0,0-.14,0-.2S3.06,14.07,3,14a.21.21,0,0,0-.12.18c-.07.08-.14,0-.2,0S2.48,14.15,2.41,14.21Z"/><path class="cls-1" d="M1.77,10.45c-.09-.24-.28-.23-.45-.16a.18.18,0,0,0-.1.28.69.69,0,0,0,.53.2c0-.06-.09,0-.13-.09s-.15,0-.14-.11.11,0,.14-.06S1.73,10.49,1.77,10.45Z"/><path class="cls-1" d="M2.6,10.23c0,.06,0,.08.06.11a1.32,1.32,0,0,0,.47.13c.07,0,.1-.09.09-.14s-.16-.21-.29-.27a.25.25,0,0,0-.28.07A.24.24,0,0,0,2.6,10.23Z"/><path class="cls-1" d="M.3,11.65a1,1,0,0,0,.3,0,.1.1,0,0,0,.08-.13.08.08,0,0,0-.11-.08.74.74,0,0,0-.25,0c-.13.07-.19,0-.21-.15s0-.07-.06-.08,0,0,0,.07C0,11.53.06,11.69.3,11.65Z"/><path class="cls-2" d="M6.64.58c0-.14.1-.18.22-.11a.5.5,0,0,0,.42.12c0-.13,0-.24-.24-.19A.14.14,0,0,1,6.86.25s0,0-.06,0-.11.07-.12,0S6.58.14,6.51.15s0,.23-.14.25c.07.06.2,0,.17.12S6.61.56,6.64.58Z"/><path class="cls-1" d="M4.58,15.62a.36.36,0,0,0,.15.15s.08.08.13.05,0-.08,0-.13,0-.07.07-.08.08,0,.09.08,0,.13.08.11.1,0,.11-.07a.1.1,0,0,0-.11-.12c-.11,0,0-.27-.24-.12S4.67,15.56,4.58,15.62Z"/><path class="cls-2" d="M5.4,15.43c-.08,0,0-.19-.13-.17s-.14.21,0,.32a.53.53,0,0,0,.48.06.17.17,0,0,0,0-.07.06.06,0,0,1,0-.06C5.63,15.47,5.49,15.53,5.4,15.43Z"/><path class="cls-1" d="M6.8.21s.06,0,.06,0A.14.14,0,0,0,7,.4c.19-.05.21.06.24.19h.07C7.25.45,7.29.26,7.19.12l0,0A.22.22,0,0,1,7,.14C6.85.07,6.83.07,6.8.21Z"/><path class="cls-2" d="M2.53,11.14c-.07-.05-.11-.15-.23-.07s-.12,0-.17-.06,0-.11-.11-.07,0,.1,0,.16a.54.54,0,0,0,0,.1l.2.07c.09,0,.19,0,.27,0Z"/><path class="cls-1" d="M1.41,13.72a.09.09,0,0,0,0,.1c.07.09.05.13-.06.17s-.16,0-.13.1.12.08.19.07.18-.07.19-.17S1.54,13.77,1.41,13.72Z"/><path class="cls-2" d="M6.2,3.22c0-.05.08,0,.09-.06s.3-.06,0-.18c0,0,0-.1,0-.16H6.23c-.05.07-.12,0-.18,0v0C6.13,3,6,3,6,3.11S6.12,3.21,6.2,3.22Z"/><path class="cls-1" d="M5,8.91c0-.08,0-.1.07-.14s.11-.12.06-.19-.12,0-.19,0a.19.19,0,0,0-.15.21C4.88,8.8,4.9,8.93,5,8.91Z"/><path class="cls-1" d="M4.91,2.93c0-.06,0-.12,0-.19s-.22-.23-.27-.21-.1.08-.06.09.13.21.2.31.09,0,.13,0Z"/><path class="cls-1" d="M3.31,10.63a2.11,2.11,0,0,0,.45.18c.06,0,.11.07.17,0s0-.09,0-.14a.12.12,0,0,0-.18,0c-.09.08-.14,0-.21,0S3.39,10.5,3.31,10.63Z"/><path class="cls-1" d="M3.31,15.41c-.18-.15-.32-.26-.54-.2a.12.12,0,0,1-.08,0s0,0,0,0,0,.05,0,.07.19.2.36.12S3.18,15.42,3.31,15.41Z"/><path class="cls-2" d="M1.91,12.6a.19.19,0,0,1,.15-.24c.06,0,.11,0,.09-.12s-.08-.05-.13-.05a1.09,1.09,0,0,0-.25,0c0,.06.09,0,.12.11-.23.05,0,.17,0,.25Z"/><path class="cls-2" d="M1.77,10.45s-.12,0-.15.06-.14,0-.14.06.1.07.14.11.1,0,.13.09a.15.15,0,0,0,.09,0,.06.06,0,0,1,0-.08Z"/><path class="cls-1" d="M4.39,16c.11,0,.18,0,.13-.15a.19.19,0,0,1,0-.15.08.08,0,0,0-.08-.11c-.06,0-.06.07-.05.13a.31.31,0,0,0,0,.08c0,.1,0,.1-.08.07l-.09,0s-.08,0-.1,0,0,.08,0,.09A.39.39,0,0,0,4.39,16Z"/><path class="cls-1" d="M1.37,11.35c-.06,0-.16,0-.15.09s.1.14.19.15.13-.08.13-.14S1.45,11.34,1.37,11.35Z"/><path class="cls-1" d="M1.69,14.66c.06,0,.17,0,.16-.07a.17.17,0,0,0-.18-.12c-.08,0-.2,0-.2.11S1.61,14.63,1.69,14.66Z"/><path class="cls-2" d="M4.37,5.88c.07.11.23.16.22.32.06,0,.12,0,.14,0h0l-.21-.32-.07,0Z"/><path class="cls-1" d="M5.11,5.4l-.05-.08a5.08,5.08,0,0,0-.51.41v0A2.24,2.24,0,0,0,5.11,5.4Z"/><path class="cls-2" d="M5.43,2.27c0-.11-.13-.17-.13-.28V1.92a.23.23,0,0,0-.12.25c0,.1.15.09.23.13Z"/><path class="cls-1" d="M5.43,2.27l0,0a.72.72,0,0,1,.28.34c.06-.15,0-.27,0-.4S5.5,2.27,5.43,2.27Z"/><path class="cls-2" d="M5.14,15.24c0-.13-.13-.11-.23-.09s0,.15,0,.19a.1.1,0,0,0,.15-.06s0,0,0,0Z"/><path class="cls-2" d="M2.61,14c0-.09.08,0,.13,0s0,0,.06-.05,0,0,0-.06l-.09,0c-.06,0-.13-.09-.19,0s.06.11,0,.17Z"/><path class="cls-1" d="M5.36,3.77c0-.13-.09-.27-.14-.4s0-.08,0-.12,0-.06,0-.07,0,0,0,0-.08,0,0,.08S5.21,3.64,5.36,3.77Z"/><path class="cls-1" d="M4.68.75a.4.4,0,0,0-.29.33c.11-.15.26-.17.32-.3Z"/><path class="cls-1" d="M4.77,2.06c-.06,0,0,0,0,.09s.07.09.1.14.12,0,.13-.09S4.85,2.09,4.77,2.06Z"/><path class="cls-1" d="M1,13.75a.41.41,0,0,0,.16.33A.35.35,0,0,0,1,13.75Z"/><path class="cls-1" d="M.94,13.54c0,.06,0,.13.09.13s.07-.1.13-.14-.15,0-.22,0Z"/><path class="cls-1" d="M13.86,14.63a.09.09,0,0,0-.08-.1s0,0-.07.06a.35.35,0,0,1-.1.11C13.71,14.71,13.8,14.73,13.86,14.63Z"/><path class="cls-1" d="M13.31,15.06c-.1,0-.21-.15-.3,0C13.12,15.13,13.22,15.16,13.31,15.06Z"/><path class="cls-1" d="M7.39,15.85a.33.33,0,0,0,.37,0A.37.37,0,0,0,7.39,15.85Z"/><path class="cls-1" d="M12.91,15.1c-.06-.09,0-.2-.07-.3h-.07C12.76,14.93,12.73,15.07,12.91,15.1Z"/><path class="cls-1" d="M.27,8.38c0,.06,0,.15.14.14a0,0,0,0,0,0,0C.42,8.39.34,8.38.27,8.38Z"/><path class="cls-1" d="M13.51,16c-.1-.07-.22,0-.33,0C13.28,16,13.4,16,13.51,16Z"/><path class="cls-1" d="M4,15.83c0-.08,0-.15,0-.2s-.05,0-.06,0S3.87,15.79,4,15.83Z"/><path class="cls-1" d="M1.77,11.37c0,.05,0,.09.08.09a.05.05,0,0,0,0-.07.12.12,0,0,0-.09-.1S1.78,11.34,1.77,11.37Z"/><path class="cls-1" d="M6,3.11C6,3,6.13,3,6,2.89S6,3,6,3.1H6Z"/><path class="cls-1" d="M5.26,16c-.09-.07-.15-.11-.23-.08s0,0,0,0S5.15,16,5.26,16Z"/><path class="cls-1" d="M5.92,3.1a.21.21,0,0,0-.11-.19c.05,0-.07.2.11.19Z"/><path class="cls-1" d="M5.08.73c0,.07,0,.09.08.07s.08-.07.06-.13S5.09.63,5.08.73Z"/><path class="cls-2" d="M5,2.25c0,.06-.13.07-.07.15a.06.06,0,0,0,.09,0C5.05,2.35,5,2.3,5,2.25Z"/><path class="cls-1" d="M5.29,1.92V2c.08,0,.18-.05.25-.13l0,0A.54.54,0,0,0,5.29,1.92Z"/><path class="cls-1" d="M11.79,15.8a.25.25,0,0,0,.22,0C11.92,15.72,11.85,15.67,11.79,15.8Z"/><path class="cls-1" d="M6.05,2.85c.06,0,.13,0,.18,0h0v0s0-.07-.07-.07S6,2.76,6.05,2.85Z"/><path class="cls-1" d="M5.82,2.74a.08.08,0,0,0,0,.07,0,0,0,0,0,0,0s0,0,0,0S5.85,2.74,5.82,2.74Z"/><path class="cls-1" d="M3.34,14.69a.1.1,0,0,0-.08-.07l0,0s.06,0,.1,0Z"/><path class="cls-2" d="M7.35.59H7.27c0,.07.06.07.1.07Z"/><path class="cls-1" d="M4.45,5.79l.07,0,0-.07v0Z"/><path class="cls-1" d="M1.87,10.65a.06.06,0,0,0,0,.08h.07S1.91,10.66,1.87,10.65Z"/><path class="cls-1" d="M4.91,2.93,5,3H4.91Z"/><path class="cls-1" d="M5.81,4.27l0,0a.05.05,0,0,0,0,0l0,0Z"/><path class="cls-1" d="M7.19.12H7.14l0,0Z"/><path class="cls-1" d="M5.14,15.24s0,0,0,0S5.15,15.27,5.14,15.24Z"/><path class="cls-1" d="M.94,13.54h0Z"/><path class="cls-1" d="M5.74,5a0,0,0,0,0,0-.05l0,0,0,0Z"/><path class="cls-1" d="M3.34,14.69s0,0,0,0h0l0,0Z"/><path class="cls-1" d="M3.41,14.76s0,0,0,0h0s0,0,0,0Z"/><path class="cls-1" d="M1.56,11.7h0Z"/><path class="cls-1" d="M10.37,9.13l0,0S10.39,9.13,10.37,9.13Z"/><path class="cls-1" d="M8.07,8.18c-.19,0-.24.08-.19.26a.15.15,0,0,1-.09.2l-.18.09a.5.5,0,0,0-.23.64c.1.29.2.57.31.85,0,.08.07.14.17.13a4.48,4.48,0,0,0,.82-.09c.07,0,.12-.06.09-.13a.41.41,0,0,1,0-.24s0-.06,0-.07-.06,0-.07.06a.77.77,0,0,0,0,.37.65.65,0,0,0-.58-.13v.15s0,0-.06,0c-.06-.19-.05-.39-.12-.58s.08-.22.18-.32A2,2,0,0,1,8,9.58a.21.21,0,0,0,.07.22c.07.07.08,0,.12-.06s.08,0,.07,0-.08.09,0,.12.1,0,.11-.07,0-.05.07,0,.12,0,.16,0,0-.09.05-.08.13-.06.13-.17c.17.17.2,0,.23-.11.06.2.05.23-.1.31a.31.31,0,0,0-.06.32s.07,0,.1,0,.36-.14.47-.33a.09.09,0,0,1,.14-.05c.1.05.11,0,.1-.1a1,1,0,0,0-.07-.15s-.05-.11-.1-.12-.05.08-.08.12,0,.09-.05.08-.14,0-.16-.15.17,0,.16-.11.15,0,.14-.1S9.43,9,9.49,9s.16-.21.22-.32,0-.13,0-.17-.09,0-.12.07c-.25.19-.47.41-.71.6a1.31,1.31,0,0,1-.43.16c-.06,0-.09,0-.09-.08s0-.17.06-.22h0c.12,0,.3,0,.31-.18a.9.9,0,0,0-.13-.59c0-.08-.09,0-.11,0a1.43,1.43,0,0,0,0,.36c0,.12,0,.18-.16.11a.43.43,0,0,0-.18-.06C8,8.68,8,8.55,8,8.44a1.83,1.83,0,0,1,.08-.25Z"/><path class="cls-1" d="M10.61,13.36c.05.07,0,.13-.08.16s-.21,0-.29.08a.1.1,0,0,1,0,0c0-.07,0-.11-.09-.12a.09.09,0,0,0-.08.06c0,.07,0,.13.08.14s0,0,0,.06,0,0-.05,0-.1,0-.12-.05-.08-.07-.1-.14a.22.22,0,0,0-.29-.12c-.1,0-.12.11,0,.2s0,.07-.07.07a.1.1,0,0,1-.08-.17c.15-.18.1-.32-.05-.46s-.06-.16,0-.18a1.26,1.26,0,0,1,.38-.1c.13,0,.19-.09.13-.17.42-.15.74.1,1.09.27,0,0,.08.07,0,.08s-.17.12-.27.05-.09-.05-.14,0,0,.08,0,.12.08.15-.08.13-.15,0-.12.17S10.54,13.27,10.61,13.36Zm-1-.24a.05.05,0,0,0,.06-.06c0-.05,0-.1-.06-.1S9.5,13,9.5,13,9.52,13.12,9.58,13.12Z"/><path class="cls-3" d="M6.64.58s0-.06-.1-.06,0,0,0,0,0,0-.06,0a.14.14,0,0,1-.11,0l-.05,0A.32.32,0,0,1,6,.74c-.08.06-.13.15-.23.18l0,.09A.29.29,0,0,1,6,1.19c.17.07,0,.18,0,.27s.24,0,.3-.17C6.2,1.2,6.21,1,6.14.92c.08.11.22.2.18.38a.42.42,0,0,0,.3-.08s0-.06,0-.07,0-.11,0-.18,0-.1.06-.08,0-.15,0-.23L6.64.59Z"/><path class="cls-3" d="M7.31,3.59c-.14,0-.09.07-.09.15s.13.17,0,.23a.23.23,0,0,1,0,.3c.11.21,0,.37-.17.43H7c.08.06,0,.15,0,.23s.07.06.06.12c.15,0,.27,0,.36-.11s.06,0,.08,0,0,.07.06,0A.08.08,0,0,0,7.69,5s0-.09,0-.13-.16-.18,0-.25l0-.07H7.58a.2.2,0,0,1-.08-.15c0-.2-.08-.4-.11-.6,0,0,0,0,0-.07S7.31,3.64,7.31,3.59Z"/><path class="cls-1" d="M6.77,8.28c.1.19.29.27.37.46,0,0,0,.07,0,.1S7,8.91,7.15,9s0,.09,0,.16a1.66,1.66,0,0,1,.14.54s0,.06,0,.05.06-.07,0-.11a2,2,0,0,1-.09-.42c0-.37,0-.42.33-.59.06,0,.13,0,.13-.12s-.07-.14-.17-.13a.81.81,0,0,1-.43-.08A.53.53,0,0,0,6.77,8.28Z"/><path class="cls-1" d="M3.92,13.19a3.09,3.09,0,0,1-.53-.09c-.05,0-.2,0-.12.12s-.06.06-.07.11.23.1.31.21a.57.57,0,0,0,.4.23.07.07,0,0,1,0,.11.08.08,0,0,1-.13,0c-.12-.08-.13,0-.14.09a.09.09,0,0,0,.07.09s.06,0,.07-.05,0-.07.07-.06c.2,0,.3-.11.42-.23h0a.44.44,0,0,0-.5-.15s-.08.07-.12,0,0-.06.05-.09,0-.19.17-.18Z"/><path class="cls-1" d="M4.73,6.14h0l0,.1c.18,0,.17.17.26.26s.16.08.2-.06a.07.07,0,0,1,.1,0h0a.62.62,0,0,1,0-.33s0,0,0,0-.11-.16-.06-.3a.15.15,0,0,1,.1.12c0,.05,0,.09.08.06s0-.07,0-.1-.06-.17-.16-.2-.1,0-.13,0S4.8,5.9,4.73,6.14Z"/><path class="cls-1" d="M7.68,4.57c-.18.07,0,.17,0,.25s0,.09,0,.13A.08.08,0,0,1,7.64,5s0,0-.06,0,0-.08-.08,0-.21.16-.36.11c0,0,0,.06,0,.08s0,.17-.1.15-.09,0-.1.1.06,0,.1,0a.28.28,0,0,0,.2,0,.2.2,0,0,1,.21,0,.68.68,0,0,0,.48-.09c.06,0,0-.08,0-.12A2.89,2.89,0,0,1,7.68,4.57Z"/><path class="cls-1" d="M8.47,7.69c0,.07,0,.11,0,.15a1.82,1.82,0,0,1,.34.95c0,.13-.09.23-.26.26s-.17,0-.14.1.12,0,.18,0A.87.87,0,0,0,9,8.94.49.49,0,0,0,9,8.53,1.1,1.1,0,0,0,8.47,7.69Z"/><path class="cls-1" d="M9.18,6.38c-.06,0,0,.2-.17.14s0,.06,0,.09l.18.25c.1,0,.14.16.26.1a4.55,4.55,0,0,0,.24-.82S9.75,6,9.67,6s-.13.12-.12.14,0,.19-.11.21c.05.15-.16.15-.15.28-.13-.06.06-.21-.09-.25Z"/><path class="cls-1" d="M9.59,11.4a.36.36,0,0,0-.21,0,.51.51,0,0,0,.42.25c.06,0-.08-.13,0-.15s.13,0,.19.08.07.17.2.18c-.09-.24-.19-.44-.48-.49a1.6,1.6,0,0,1-.51-.2c-.06,0-.12-.08-.19,0a.09.09,0,0,0,0,.11c0,.07.1.05.16.06S9.5,11.23,9.59,11.4Z"/><path class="cls-1" d="M7.38,2.5a.48.48,0,0,0,.5-.42c0-.14,0-.2-.17-.16L7.42,2a.14.14,0,0,0-.08.21.47.47,0,0,1,0,.16S7.34,2.47,7.38,2.5Z"/><path class="cls-3" d="M4.73,6.14c.07-.24.34-.3.46-.5s.08,0,.13,0-.07-.2-.21-.21a2.24,2.24,0,0,1-.55.35l0,.07Z"/><path class="cls-3" d="M6.37,1.78l0,.16a3.17,3.17,0,0,0,.51-.2c.1,0,0-.17.07-.21s-.08,0-.11,0-.1.07-.14,0v0l0,0c.06,0,.06-.05.1-.06s0-.13-.09-.07a.61.61,0,0,1-.14.07C6.29,1.53,6.29,1.53,6.37,1.78Z"/><path class="cls-1" d="M7.08,4.93c0-.08,0-.17,0-.23l0,.06s0,0,0-.06c.22-.06.28-.22.17-.43-.11,0-.15,0-.1-.15s0,0,0,0,0,0-.06,0c-.18.08-.18.23-.17.39a.24.24,0,0,1,0,.2C6.78,4.75,6.93,4.92,7.08,4.93Z"/><path class="cls-1" d="M8,15c-.13-.13,0-.35-.2-.44a.55.55,0,0,0-.28-.07c-.06,0-.17,0-.11.16s0,0,0,.06-.06.09,0,.11S7.82,15,8,15Z"/><path class="cls-1" d="M9,7.36a2.15,2.15,0,0,1,.13.32c0,.09,0,.16-.11.16s-.18.06-.08.19.06.19.16.16S9.16,8,9.16,8s0-.08.05-.1.15-.12.07-.27S9.1,7.41,9,7.36Z"/><path class="cls-3" d="M7.38,2.5s0-.07,0-.1-.11-.07-.14-.13S7.11,2.13,7,2.19s-.21,0-.25.11a.21.21,0,0,1,.05.2l.07,0c.18-.17.24,0,.35.09S7.32,2.52,7.38,2.5Z"/><path class="cls-1" d="M9.14,8.79c.14-.06.2-.19.31-.27a1,1,0,0,1,.47-.19s.09,0,.1,0,0-.09-.07-.1-.19-.07-.28,0-.33.15-.47.29S9.05,8.66,9.14,8.79Z"/><path class="cls-1" d="M8.88,10.83a.06.06,0,0,0,0,.06.61.61,0,0,1,.33,0c.1,0,.1,0,.1-.11s.05-.15.15-.15-.11-.13-.11-.22-.1,0-.1.06v.06s0,0,0,.05l0,0a.05.05,0,0,1,0-.06s-.09,0-.1-.08h0s0,.09,0,.11.09.06.05.13S9,10.73,8.88,10.83Z"/><path class="cls-1" d="M9.64,7.66c.11.06.07.16.07.25s0,.11.07.12.07-.06.07-.11a1.45,1.45,0,0,0,0-.55.16.16,0,0,0-.18-.12c-.1,0,0,.09,0,.14a2.45,2.45,0,0,1,0,.27Z"/><path class="cls-1" d="M8.08,8.19h.19c.13,0,.2-.09.14-.21s-.15-.17-.22-.26l0,0s0,.09-.06.06S8,7.74,8,7.78A.25.25,0,0,0,8,8c0,.05.11.09.06.18Z"/><path class="cls-1" d="M6.79,1.43s0,.08-.1.06l0,0c0,.09.08.07.14,0s.07-.12.11,0l.25,0c.2,0,.13-.21.11-.29s-.15,0-.23,0S6.86,1.34,6.79,1.43Z"/><path class="cls-1" d="M2.45,12.07c0,.14.07.17.16.13a.17.17,0,0,1,.18,0c.14.06.25,0,.35-.09s0-.13,0-.2a.07.07,0,0,0-.07,0c0,.08-.06.14-.13.13A1.3,1.3,0,0,0,2.45,12.07Z"/><path class="cls-1" d="M13,14.27a.15.15,0,0,0,0,.1c.09.13.08.23-.09.28s-.06.11-.1.15h0a.87.87,0,0,1,.36,0c.06,0,.07,0,.09-.05a0,0,0,0,0,0-.07s-.14,0-.1-.14.12,0,.19-.05l.08,0c-.19,0-.25-.22-.43-.22Z"/><path class="cls-3" d="M2.45,12.07A1.3,1.3,0,0,1,2.93,12c.07,0,.12-.05.13-.13S3,11.81,3,11.8s-.07,0-.08,0h0c0,.12-.09.07-.15.09s-.2,0-.25.09Z"/><path class="cls-3" d="M6.1,15.35c-.07.06-.16.11-.11.22s.14.13.24.14h.16c.08,0,.11,0,.05-.11s-.14-.18-.21-.26S6.14,15.35,6.1,15.35Z"/><path class="cls-1" d="M7.55,8.25c.07,0,.21.1.21-.07S7.64,8.05,7.54,8L7.22,8s-.06,0-.08,0,0,.05,0,.07S7.38,8.31,7.55,8.25Z"/><path class="cls-3" d="M11.15,15.3c-.08,0-.2,0-.17-.2s-.15-.08-.26.06c.11.05.2.1.23.23s.13.1.2.13a.07.07,0,0,0,.08,0c0-.08-.07-.09-.06-.16Z"/><path class="cls-3" d="M7.78,3.9c-.07-.11-.14,0-.21,0a2.24,2.24,0,0,0,.14.46c0,.1.15-.19.16,0,.12,0,0-.07.06-.11h0c-.06,0,0,0-.05-.07a.12.12,0,0,1,0-.13C7.8,4.05,7.8,4,7.78,3.9Z"/><path class="cls-3" d="M5.1,13.37c-.12,0-.23-.11-.34,0,.16.13.3.28.53.23a.09.09,0,0,0-.07-.11A.16.16,0,0,1,5.1,13.37Z"/><path class="cls-1" d="M7.42,9.79c0,.09-.12.14,0,.26a.34.34,0,0,1,.08.31s0,.08,0,.11a.08.08,0,0,0,.11,0,.07.07,0,0,0,0-.1A2.31,2.31,0,0,0,7.42,9.79Z"/><path class="cls-3" d="M7.82,7.35c-.05,0-.1,0-.15,0a.13.13,0,0,1-.19-.11s-.07,0-.1,0l-.08.1h0s.07-.06.11,0,0,0,0,0a1.72,1.72,0,0,1,.42.23s0,0,.07,0,0-.1,0-.11S7.83,7.4,7.82,7.35Z"/><path class="cls-1" d="M11.39,14a1.33,1.33,0,0,0-.1-1.11,1,1,0,0,0,.12.54C11.48,13.63,11.29,13.79,11.39,14Z"/><path class="cls-3" d="M5.74,5l0,0a1,1,0,0,0-.42.3l.19.19c0-.1,0-.14.16-.12-.06-.07-.16-.08-.13-.11s.08-.14.15-.12S5.72,5,5.74,5Z"/><path class="cls-1" d="M9.18,14.78c.09.12.1.3.31.26s.14,0,.07-.11,0-.12,0-.2A.37.37,0,0,1,9.18,14.78Z"/><path class="cls-1" d="M10.36,12.36h0c-.1,0-.25,0-.24.08s.13,0,.2,0a2.8,2.8,0,0,1,.5.12s.09,0,.1,0,0-.06-.09-.06S10.54,12.34,10.36,12.36Z"/><path class="cls-1" d="M6.76,14.28a.19.19,0,0,0,.19.19c.08,0,.13-.12.13-.16s-.15-.14-.25-.16S6.81,14.26,6.76,14.28Z"/><path class="cls-1" d="M9.64,7.66a.38.38,0,0,0-.24.15c-.11.12-.05.24.22.38a.61.61,0,0,1,0-.53Z"/><path class="cls-1" d="M8.15,5.19c.06,0,.13,0,.09-.09s-.06-.29-.17-.4-.13,0-.08.11,0,.08-.09.08,0,0,0,.05S8,5,8,5.09H8C8.08,5.08,8.11,5.14,8.15,5.19Z"/><path class="cls-1" d="M7.84,14.25l.19.2s.08.11.13.07a.18.18,0,0,0,0-.22A.26.26,0,0,0,7.84,14.25Z"/><path class="cls-3" d="M8.88,10.83c.07-.1.14-.19.28-.14s-.08-.07-.05-.13l-.37,0c.18.07.09.17,0,.26A.09.09,0,0,0,8.88,10.83Z"/><path class="cls-3" d="M5,14.55c.08,0,.09-.05.08-.09s-.15-.13-.23-.19-.11,0-.13.1S4.87,14.55,5,14.55Z"/><path class="cls-1" d="M5.51,8.37s-.28.26-.26.3v0c.11,0,.18-.07.27-.09s0-.13,0-.2Z"/><path class="cls-3" d="M7.9,4.89c.06,0,.12,0,.09-.08s.06-.07.08-.11,0-.23-.2-.21l0,0C7.75,4.65,7.83,4.77,7.9,4.89Z"/><path class="cls-3" d="M3.76,14.48H3.6a.14.14,0,0,1,.07.19c0,.06,0,.09.06.11s.14,0,.18,0-.06-.06-.09-.1,0,0-.11-.08l.21-.05s.11,0,.11-.06-.08,0-.13-.05S3.83,14.51,3.76,14.48Z"/><path class="cls-3" d="M6.07,2s.11-.14-.05-.1-.07,0-.08,0,0,0,0-.07.12,0,.09-.07-.08,0-.13,0a.22.22,0,0,0-.19.09C5.84,1.92,5.88,2.09,6.07,2Z"/><path class="cls-1" d="M7.73,2.68c.12,0,.28.07.31-.15S8,2.42,8,2.45a.7.7,0,0,0-.27.14S7.71,2.65,7.73,2.68Z"/><path class="cls-3" d="M6.39,5.69c-.07,0-.1,0-.17-.05s0,.14,0,.21,0,.14.11,0,.1,0,.14,0S6.4,5.77,6.39,5.69Z"/><path class="cls-1" d="M11.22,13.69l.06-.31c0-.07,0-.11-.08-.16s0,0-.07,0-.08.12,0,.19a.33.33,0,0,1,.07.28Z"/><path class="cls-3" d="M8.22,4.86c.06-.14-.05-.27,0-.43S8.1,4.33,8,4.32A3.6,3.6,0,0,1,8.22,4.86Z"/><path class="cls-3" d="M9.4,10.39c0,.09.16.11.11.22.19-.11.19-.19,0-.37C9.47,10.28,9.47,10.36,9.4,10.39Z"/><path class="cls-1" d="M11.45,14.15c.06.1.17.09.25.12s.11,0,.1-.06a.22.22,0,0,0-.19-.18A.17.17,0,0,0,11.45,14.15Z"/><path class="cls-1" d="M7.24,2.61c-.11,0-.17-.26-.35-.09,0,.06,0,.1.09.09s.14.06.13.16S7.24,2.69,7.24,2.61Z"/><path class="cls-1" d="M4.86,14.05a.81.81,0,0,1-.28-.13s-.08-.05-.11,0a.37.37,0,0,0,0,.15s.06,0,.1,0S4.74,14.13,4.86,14.05Z"/><path class="cls-1" d="M6.08,14.39a.54.54,0,0,1,0-.11c0-.09-.06-.1-.13,0s-.05,0-.06.05-.13.07-.07.15.11,0,.17,0Z"/><path class="cls-3" d="M4.6,11.23s-.1,0-.08,0a.11.11,0,0,0,.06.11.89.89,0,0,0,.39.09Z"/><path class="cls-3" d="M7.73,2.68s-.05-.05,0-.09l-.28.1s0,.11.07.13A.26.26,0,0,0,7.73,2.68Z"/><path class="cls-1" d="M5.1,13.37a.16.16,0,0,0,.12.13.09.09,0,0,1,.07.11c.21,0,0-.14.06-.21s0-.11-.13-.08Z"/><path class="cls-1" d="M7.69,6.74c0-.15.32-.15.14-.35a1,1,0,0,1-.2.14C7.56,6.58,7.63,6.67,7.69,6.74Z"/><path class="cls-1" d="M4.75,12.47a.88.88,0,0,0-.3-.16s-.07,0-.09,0,0,.06,0,.09S4.59,12.5,4.75,12.47Z"/><path class="cls-1" d="M5.33,14.8a.1.1,0,0,0,.13.09.4.4,0,0,1,.37,0,.37.37,0,0,0-.51-.08Z"/><path class="cls-1" d="M8.19,10.72a.81.81,0,0,0,0,.46s0,.08.08.06,0-.06,0-.1l-.06-.37S8.22,10.73,8.19,10.72Z"/><path class="cls-3" d="M4.22,14.15c.07.13,0,.25,0,.38l.21-.22C4.35,14.26,4.31,14.17,4.22,14.15Z"/><path class="cls-3" d="M8.19,10.72s.05,0,.06,0a.23.23,0,0,1,.31,0c0-.12-.1-.17-.19-.17A.17.17,0,0,0,8.19,10.72Z"/><path class="cls-1" d="M7.15,15s0,0,0,0a.07.07,0,0,0-.06-.08c-.1,0-.2,0-.19-.18s0,0-.06,0a.06.06,0,0,0,0,.08A.49.49,0,0,0,7.15,15Z"/><path class="cls-1" d="M10.94,14.63l.36.09s.1,0,.11-.05,0-.09-.08-.08S11.09,14.53,10.94,14.63Z"/><path class="cls-1" d="M4.9,13.84c.09.1.2.13.26.23a.08.08,0,0,0,.12,0,.08.08,0,0,0,0-.1A.58.58,0,0,0,4.9,13.84Z"/><path class="cls-1" d="M8.56,14.22c0,.07,0,.2.12.21a.12.12,0,0,0,.13,0s0-.06-.05-.09A.24.24,0,0,0,8.56,14.22Z"/><path class="cls-3" d="M6.44,2.44c0,.06.08.17.1.15s.16-.13.14-.25C6.6,2.37,6.5,2.36,6.44,2.44Z"/><path class="cls-1" d="M6.2,14.15a.29.29,0,0,0,.18.16s.13,0,.12-.07-.12-.12-.21-.14A.06.06,0,0,0,6.2,14.15Z"/><path class="cls-3" d="M4.6,13.05c.08,0,.13,0,.13-.07s-.05-.07-.1-.06-.21,0-.21.07S4.57,13,4.6,13.05Z"/><path class="cls-1" d="M8.78,10.78c.05-.09.14-.19,0-.26s-.1.08-.09.15S8.67,10.82,8.78,10.78Z"/><path class="cls-3" d="M8.08,15.53c-.05.06,0,.1,0,.13a.14.14,0,0,0,.16,0,.07.07,0,0,0,0-.12s-.08,0-.08-.07Z"/><path class="cls-1" d="M9.27,8.21a.29.29,0,0,0-.21.18s0,.11.08.09a.43.43,0,0,0,.19-.21S9.31,8.22,9.27,8.21Z"/><path class="cls-3" d="M10.46,15l0-.06h-.06a0,0,0,0,1-.05,0l-.22,0-.06.1A.77.77,0,0,0,10.46,15Z"/><path class="cls-3" d="M3.92,13.19v.16a.11.11,0,0,0,.12,0c0-.07.1-.07.11-.13S4,13.12,3.92,13.19Z"/><path class="cls-1" d="M8.81,14.9s0-.13-.07-.12-.12,0-.11.12,0,.1.08.1A.08.08,0,0,0,8.81,14.9Z"/><path class="cls-1" d="M6.54,14.63c-.09-.07-.16-.12-.26-.09.06.05-.06.09,0,.14S6.44,14.69,6.54,14.63Z"/><path class="cls-1" d="M7.82,4.51l0,0v-.1c0-.23-.13.06-.16,0h-.1l0,0v.14h.07C7.71,4.42,7.77,4.39,7.82,4.51Z"/><path class="cls-3" d="M9.45,7c-.12.06-.16-.08-.26-.1a.23.23,0,0,0,.11.22C9.43,7.18,9.42,7,9.45,7Z"/><path class="cls-3" d="M6.3,6.38c0-.07,0-.14,0-.2a.23.23,0,0,0-.18,0s.06.06,0,.1A.16.16,0,0,0,6.3,6.38Z"/><path class="cls-1" d="M4.14,13.23c0,.06-.1.06-.11.13a.07.07,0,0,0,.07,0c.06,0,.14.07.17,0S4.23,13.22,4.14,13.23Z"/><path class="cls-1" d="M6.32,1.3c0-.18-.1-.27-.18-.38.07.12.06.28.18.37Z"/><path class="cls-1" d="M12.27,14.51c0-.07.14.06.15,0s-.09-.07-.15-.08-.11,0-.1.07S12.22,14.52,12.27,14.51Z"/><path class="cls-1" d="M8.22,8.55c0,.07.09.07.14.08s.06-.05.06-.09,0-.11-.06-.1S8.25,8.5,8.22,8.55Z"/><path class="cls-3" d="M2.27,12.31c-.06.06-.06.13,0,.17a.1.1,0,0,0,.16-.06A.32.32,0,0,0,2.27,12.31Z"/><path class="cls-1" d="M8.26,3.28s0,0,0,0,0-.15,0-.2a.07.07,0,0,0-.1,0c0,.08,0,.13.07.18l0,0Z"/><path class="cls-1" d="M9,6.47c0-.15-.07-.22-.22-.22C8.8,6.38,8.92,6.4,9,6.47Z"/><path class="cls-3" d="M12.19,13.26c.07,0,.13,0,.2,0s-.05-.14-.11-.16S12.19,13.2,12.19,13.26Z"/><path class="cls-3" d="M4.77,6.26l0-.1c0,.07-.08,0-.14,0s0,.21.17.17A.09.09,0,0,1,4.77,6.26Z"/><path class="cls-1" d="M6.65,4.42c-.05-.08,0-.18-.13-.19a0,0,0,0,0-.06.06A.17.17,0,0,0,6.65,4.42Z"/><path class="cls-1" d="M7.19,6.22c.09,0,.1-.08.13-.13S7.3,6,7.27,6s-.1.06-.12.11S7.16,6.21,7.19,6.22Z"/><path class="cls-1" d="M4,7.65A.51.51,0,0,0,4,8C4,7.84,4,7.84,4,7.65Z"/><path class="cls-1" d="M6.52,3.86s.11,0,.12-.07,0-.1-.08-.09-.11,0-.11.08A.06.06,0,0,0,6.52,3.86Z"/><path class="cls-3" d="M6.23,2.79v0H6.3c.11,0,0-.14,0-.22A.23.23,0,0,0,6.23,2.79Z"/><path class="cls-1" d="M6.59,13.73c-.06.06-.18,0-.18.13s.08,0,.12,0S6.54,13.79,6.59,13.73Z"/><path class="cls-1" d="M12.17,14.15c.11,0,.19.11.35.06l-.34-.11Z"/><path class="cls-1" d="M10.09,15l.06-.1s0,0-.05,0-.19,0-.19.06S10,15,10.09,15Z"/><path class="cls-1" d="M11.3,14c-.08.12-.08.22-.13.29C11.27,14.24,11.32,14.17,11.3,14Z"/><path class="cls-1" d="M4.7,6.69s0,0,0,.08-.06.1,0,.14,0,0,.07,0,.07-.1,0-.16l0,0Z"/><path class="cls-1" d="M11,13.47a1.24,1.24,0,0,0-.06.18s0,.09,0,.09.06-.05.05-.09Z"/><path class="cls-1" d="M7.81,6.24c0-.13,0-.13-.1-.25C7.68,6.11,7.79,6.16,7.81,6.24Z"/><path class="cls-1" d="M5.41,6.41c.11,0,.09-.12.07-.21S5.42,6.33,5.41,6.41Z"/><path class="cls-3" d="M8.15,5.19c0-.05-.07-.11-.15-.1S8,5.28,8.15,5.19Z"/><path class="cls-1" d="M6.65,5.57s.1.07.16,0-.07-.13-.17-.11Z"/><path class="cls-3" d="M6.65,5.57V5.48s0,0,0,0a.12.12,0,0,0-.08.12.14.14,0,0,1,.11,0Z"/><path class="cls-1" d="M6.65,5.58a.14.14,0,0,0-.11,0h0l0,.09C6.61,5.69,6.67,5.68,6.65,5.58Z"/><path class="cls-1" d="M10.9,13.75a.15.15,0,0,0-.05-.14c0,.07,0,.12,0,.14Z"/><path class="cls-1" d="M8.24,3.27a.07.07,0,0,0-.09.06,0,0,0,0,0,0,0c.05,0,.06-.05.07-.09Z"/><path class="cls-3" d="M8,5.09c0-.07,0-.15-.08-.15S7.92,5.07,8,5.09Z"/><path class="cls-1" d="M6.65,1.15s0,0,0,.07.1,0,.11-.05S6.68,1.15,6.65,1.15Z"/><path class="cls-3" d="M6.53,5.66l0-.09-.07,0S6.5,5.66,6.53,5.66Z"/><path class="cls-3" d="M9.15,10.45h0s0,0-.07-.06,0,0,0,0Z"/><path class="cls-1" d="M10.89,13.75s0,.07,0,.09l0,0s0-.05,0-.07Z"/><path class="cls-1" d="M7.38,7.41s.06,0,0,0-.08,0-.11,0S7.35,7.42,7.38,7.41Z"/><path class="cls-3" d="M9.19,10.44c0,.06.06.06.1.08h0v-.06S9.23,10.4,9.19,10.44Z"/><path class="cls-1" d="M2.82,13.2l0-.06v0s0,0,0,0Z"/><path class="cls-1" d="M9.2,6.36s0-.05,0-.05,0,0,0,0,0,0,0,0Z"/><path class="cls-1" d="M7.25,6.82s0-.06,0-.06l0,0s0,0,.05.06Z"/><path class="cls-1" d="M7.56,6.93s0-.06-.08-.06v0s0,0,.08,0Z"/><path class="cls-1" d="M4.11,12.61s0,0,0,0l0,0s0,0,0,0Z"/><path class="cls-1" d="M11.35,12.53v0l0,0v0Z"/><path class="cls-1" d="M8.19,7.72s0-.07-.07,0,0,0,.05.06Z"/><path class="cls-1" d="M2.88,11.77s0,.05.08,0S2.92,11.76,2.88,11.77Z"/><path class="cls-1" d="M2.71,13.07h0Z"/><path class="cls-1" d="M4.32,13.75l0,0v0h0Z"/><path class="cls-1" d="M10.37,14.9a0,0,0,0,0,.05,0Z"/><path class="cls-1" d="M11.24,12.4l0,0s0,0,0,0Z"/><path class="cls-3" d="M10.25,9.09s.05,0,.05,0S10.26,9.07,10.25,9.09Z"/><polygon class="cls-1" points="7.09 8 7.09 7.99 7.08 7.99 7.09 8"/><path class="cls-1" d="M13,14.28v0h0Z"/><path class="cls-1" d="M5.33,6.41h0Z"/><path class="cls-3" d="M12.36,15.3c-.06,0-.13,0-.12.07a.23.23,0,0,0,.16.17c.12,0,0-.16.14-.2Z"/><path class="cls-3" d="M4.15,14.72a.16.16,0,0,0-.13.06s0,.05,0,.07.07,0,.1,0,.08,0,.12,0a.34.34,0,0,0,.19.09.1.1,0,0,0,0,0s0,0,0,0Z"/><path class="cls-3" d="M5.4,15.43c.09.1.23,0,.34.08s.1,0,0-.09A.32.32,0,0,0,5.4,15.43Z"/><path class="cls-3" d="M7,15.71s0-.05,0-.06-.09-.13-.19-.08a0,0,0,0,0,0,.06c0,.1.12.1.2.09Z"/><path class="cls-3" d="M11.35,15.6s-.14,0-.14.06.08.09.14.08.14,0,.14-.1S11.4,15.61,11.35,15.6Z"/><path class="cls-2" d="M9,15.74c0,.07.1.09.15.14s.06,0,0-.06-.05-.14-.14-.15S9,15.69,9,15.74Z"/><path class="cls-3" d="M3.89,15.11s0-.1,0-.1-.05.05-.05.09,0,.09.05.1S3.88,15.14,3.89,15.11Z"/><path class="cls-3" d="M4.27,15.24c-.06-.07-.08-.13-.16-.1a0,0,0,0,0,0,.06C4.12,15.28,4.19,15.24,4.27,15.24Z"/><path class="cls-3" d="M4.81,15.12l0,0s0,0,0,0Z"/><path class="cls-2" d="M7.61,4.34h.1a2.24,2.24,0,0,1-.14-.46l0-.09h0l-.16,0c0,.2.07.4.11.6a.2.2,0,0,0,.08.15V4.37s0,0,0-.08Z"/><path class="cls-3" d="M7.45,3.62a.36.36,0,0,0,.21,0V3.48c-.06-.06-.1-.12,0-.21a.12.12,0,0,1-.13-.13c-.11-.05-.14.08-.22.09A1.49,1.49,0,0,1,7.45,3.62Z"/><path class="cls-2" d="M7.45,3.62a1.49,1.49,0,0,0-.17-.39A.64.64,0,0,1,7,3.41s0,0,0,0,.08,0,.12,0,.18,0,.18.12.06.06.08.1S7.44,3.65,7.45,3.62Z"/><path class="cls-3" d="M6,3.11H6c0,.13,0,.31.2.31,0-.05.06-.06.11-.07s-.08-.07-.1-.12S6.09,3.13,6,3.11Z"/><path class="cls-2" d="M6,3.75c0,.08.05.17.16.17s.05,0,.05-.09,0-.19-.16-.2S6,3.7,6,3.75Z"/><path class="cls-2" d="M6.82,3.38c0-.08.06-.17,0-.22a.09.09,0,0,0-.14,0c-.06.08-.06.13.05.13s.07.08.13,0Z"/><path class="cls-2" d="M6.3,3.34s-.09,0-.11.07.2,0,.3,0,0,0,0-.06,0,0-.06,0Z"/><path class="cls-2" d="M7.5,3.14a.12.12,0,0,0,.13.13.1.1,0,0,0,0-.16C7.62,3,7.56,3.15,7.5,3.14Z"/><path class="cls-3" d="M7.94,3.9s.12,0,.12,0A.19.19,0,0,0,8,3.69s-.06,0,0,.05,0,.1,0,.15Z"/><path class="cls-2" d="M7.94,3.9h0a.15.15,0,0,1-.13,0c0,.07,0,.15.08.19S8,4,7.94,3.9Z"/><path class="cls-2" d="M7.66,3.48v.11s0,.07,0,.1-.08.05,0,.07.07,0,.07,0S7.83,3.52,7.66,3.48Z"/><path class="cls-2" d="M7.89,4.22s0,.07.05.07S8,4.2,7.89,4.22Z"/><path class="cls-3" d="M6.13,4.25v0l0,0Z"/><path class="cls-2" d="M7.55,3.8l0,0s0,0,0,0Z"/><path class="cls-3" d="M4.35,11.94s.07,0,.11.05.14,0,.13-.1,0-.13.12-.1.08,0,.1,0,0-.08,0-.12-.26-.14-.41-.09a.09.09,0,0,0,0,.15c.1,0,.09.1.11.14s-.06.07-.1.09Z"/><path class="cls-2" d="M4.35,11.94a.4.4,0,0,0-.44-.24.12.12,0,0,0-.07.11s0,.06.09.06a.32.32,0,0,1,.19.07.15.15,0,0,0,.23,0Z"/><path class="cls-3" d="M4.16,11.27c.07.08.14.06.24.06A.23.23,0,0,0,4.16,11.27Z"/><path class="cls-2" d="M11,12.08h0Z"/><path class="cls-2" d="M6.12,6.2a.23.23,0,0,1,.18,0s.14-.07.09-.14-.19,0-.27,0S6.11,6.16,6.12,6.2Z"/><path class="cls-2" d="M7.38,7.28s.07,0,.1,0,0-.09,0-.28C7.44,7.12,7.35,7.18,7.38,7.28Z"/><path class="cls-2" d="M5.84,5.4a.09.09,0,0,0-.12.07.08.08,0,0,0,0,.09c.06,0,.09,0,.09-.06a.06.06,0,0,1,0,0s.1.08.08,0S5.87,5.41,5.84,5.4Z"/><path class="cls-3" d="M2.19,13.41c0,.05-.1,0-.09.08s.07.07.12.08a.32.32,0,0,0,.17,0s.11.05.12,0,0-.09-.1-.12l-.12,0Z"/><path class="cls-2" d="M2.19,13.41h.1A.6.6,0,0,0,2,13.16s-.06,0-.05.06.07.15.15.14S2.18,13.34,2.19,13.41Z"/><path class="cls-2" d="M2.16,13.75c0,.07.06.1.12.1a.1.1,0,0,0,.11-.1c0-.09-.08-.08-.12-.08A.09.09,0,0,0,2.16,13.75Z"/><path class="cls-2" d="M1.73,13.34c0-.08-.05-.15-.14-.16s-.06.05-.05.06S1.64,13.31,1.73,13.34Z"/><path class="cls-3" d="M2,12c.08,0,.14,0,.12-.08s-.14-.06-.21-.08-.15,0-.14.06S2,11.94,2,12Z"/><path class="cls-3" d="M1.55,12.09h0v0h0Z"/><path class="cls-2" d="M2.12,12.81h0Z"/><path class="cls-3" d="M14.3,14c.07,0,.15,0,.15-.09s-.09-.15-.2-.14-.16,0-.15.09S14.22,14,14.3,14Z"/><path class="cls-2" d="M12.36,13.44l0,0h0Z"/><path class="cls-2" d="M4.28,6.09a.06.06,0,0,1,0,0s0,.12,0,.13.08,0,.08-.08,0-.12-.11-.09Z"/><path class="cls-3" d="M5.86.58a0,0,0,0,0,0,0c0-.09,0-.22-.14-.18,0,0-.11.13,0,.15S5.84.54,5.86.58Z"/><path class="cls-3" d="M5.43.63c.05,0,.1,0,.14,0s0-.06,0-.08A.14.14,0,0,0,5.43.63Z"/><path class="cls-3" d="M5.36.46h0l0,0Z"/><path class="cls-2" d="M6.27.56l0,0v0Z"/><path class="cls-3" d="M5.36.45h0v0Z"/><path class="cls-2" d="M6.43.56s.05,0,.06,0Z"/><path class="cls-2" d="M6.27.61l.05,0H6.27Z"/><path class="cls-1" d="M5.86.58s0,0-.05,0Z"/><path class="cls-2" d="M15,14.82c0-.08.18,0,.17-.15s-.13-.12-.21-.14-.09.05-.09.12S14.89,14.77,15,14.82Z"/><path class="cls-2" d="M6,1.19A.29.29,0,0,0,5.81,1c-.15.05,0,.12,0,.17S5.92,1.29,6,1.19Z"/><path class="cls-3" d="M5.65,4.55h0s0,0,0,0Z"/><path class="cls-2" d="M6.64.59l.05.07C6.72.61,6.67.61,6.64.59Z"/><path class="cls-2" d="M7.14.84l0,0s0,0,0,0Z"/><path class="cls-2" d="M7.14.84v0s0,0,0,0Z"/><path class="cls-2" d="M9.5,13c0,.05,0,.09.08.09a.05.05,0,0,0,.06-.06c0-.05,0-.1-.06-.1S9.5,13,9.5,13Z"/><path class="cls-1" d="M6.69,1.49l0,0v0Z"/><path class="cls-3" d="M7,4.7s-.06,0,0,.06L7,4.7Z"/><path class="cls-3" d="M9.29,10.52a.05.05,0,0,0,0,.06l0,0s0,0,0-.05Z"/><path class="cls-1" d="M7.61,4.34l-.05,0s0,0,0,.08Z"/></g></g></svg>